<?xml version="1.0" standalone="no"?>
<!DOCTYPE svg PUBLIC "-//W3C//DTD SVG 1.1//EN" "http://www.w3.org/Graphics/SVG/1.1/DTD/svg11.dtd" >
<svg xmlns="http://www.w3.org/2000/svg">
<metadata>
This is a custom SVG webfont generated by Font Squirrel.
Copyright   : Copyright c 2010 by Jonathan Hill All rights reserved
Designer    : Jonathan Hill
Foundry     : Jonathan Hill
Foundry URL : httpwwwthenorthernblockcouk
</metadata>
<defs>
<font id="LintelRegular" horiz-adv-x="980" >
<font-face units-per-em="2048" ascent="1536" descent="-512" />
<missing-glyph horiz-adv-x="614" />
<glyph unicode=" "  horiz-adv-x="614" />
<glyph unicode="&#x09;" horiz-adv-x="614" />
<glyph unicode="&#xa0;" horiz-adv-x="614" />
<glyph unicode="!" horiz-adv-x="337" d="M102 68q0 27 19.5 46t48.5 19q25 0 45.5 -19.5t20.5 -45.5q0 -27 -20.5 -47.5t-45.5 -20.5q-29 0 -48.5 20.5t-19.5 47.5zM109 1403h120l-4 -1176h-112z" />
<glyph unicode="&#x22;" horiz-adv-x="561" d="M102 1434h131l-10 -469h-106zM328 1434h131l-10 -469h-109z" />
<glyph unicode="#" horiz-adv-x="1318" d="M102 428v113h260q14 61 23.5 99t15 62.5t9.5 42t8 37.5h-316v115h342q6 20 12.5 47t19.5 80t33.5 142t53.5 237h117l-117 -506h279q29 123 59.5 253t59.5 253h118l-121 -506h259v-115h-285q-12 -53 -21.5 -88t-15.5 -60.5t-11 -47t-10 -45.5h343v-113h-367l-102 -428 h-117l102 428h-280l-14 -53q-7 -29 -18 -76t-28.5 -117.5t-42.5 -181.5h-117l103 428h-234zM475 541h283l59 241h-282q-14 -66 -29 -120.5t-31 -120.5z" />
<glyph unicode="$" horiz-adv-x="1181" d="M102 414h113q2 -53 23.5 -107.5t61.5 -98.5t99.5 -75t137.5 -39v606q-78 27 -150 55.5t-127 68.5t-88 95.5t-33 133.5q0 82 33 146.5t87 109.5t126 72.5t152 35.5v80h110v-78q80 -10 156 -39.5t134 -80t94 -121t38 -160.5h-113q-4 137 -93 208.5t-216 82.5v-523 q80 -27 158 -58.5t138.5 -77.5t98 -108.5t37.5 -150.5q0 -84 -24.5 -155.5t-76.5 -126t-134 -88t-197 -41.5v-74h-110v74q-106 8 -187.5 50t-134.5 103.5t-82 135t-31 145.5zM254 1053q0 -43 23.5 -78t62.5 -62.5t90 -50t107 -41.5v486q-59 -8 -110.5 -27.5t-90.5 -51.5 t-60.5 -76t-21.5 -99zM647 94q168 16 243 97t75 200q0 55 -27 97t-71 75t-101 57.5t-119 45.5v-572z" />
<glyph unicode="%" horiz-adv-x="1415" d="M102 1108q0 63 24 119.5t65.5 99.5t99 67.5t123.5 24.5q63 0 119.5 -24.5t99.5 -67.5t67.5 -99.5t24.5 -119.5q0 -66 -24.5 -123t-67.5 -99t-99.5 -65.5t-119.5 -23.5q-66 0 -123.5 23.5t-99 65.5t-65.5 99t-24 123zM106 0l1059 1403h146l-1061 -1403h-144zM217 1108 q0 -41 15.5 -77t42 -63.5t62.5 -43t77 -15.5t77.5 15.5t63.5 43t42 63.5t15 77q0 84 -57 142.5t-141 58.5q-41 0 -77 -15.5t-62.5 -43t-42 -64.5t-15.5 -78zM690 291q0 63 23.5 119.5t65.5 99.5t99.5 67.5t122.5 24.5q63 0 120 -24.5t100 -67.5t67.5 -99.5t24.5 -119.5 q0 -66 -24.5 -123t-67.5 -99t-99.5 -67t-120.5 -25q-66 0 -123 25t-99 67t-65.5 99t-23.5 123zM803 291q0 -41 15.5 -78t43 -63.5t63.5 -42t76 -15.5q41 0 77 15.5t63.5 42t43 63.5t15.5 78t-15.5 76.5t-43 62.5t-63.5 42t-77 15t-76.5 -15t-63 -42t-43 -62.5t-15.5 -76.5z " />
<glyph unicode="&#x26;" horiz-adv-x="1138" d="M102 1055q0 70 22.5 128t64.5 101t99.5 66.5t127.5 23.5q68 0 125 -23.5t98 -66.5t64.5 -101.5t23.5 -127.5q0 -72 -31.5 -135.5t-85.5 -102.5l-129 -96l-28 -25q20 -27 43.5 -54.5t59.5 -69.5t89 -103t133 -156q4 23 6 51.5t2 63.5h113q0 -70 -8 -125t-29 -94l174 -209 h-149l-96 113q-53 -61 -123 -87t-162 -26q-86 0 -159 28.5t-126 81t-82.5 124t-29.5 155.5q0 90 42 170t107 133l21 15q4 4 10 7t4 1l-127 155q-64 76 -64 185zM215 1055q0 -33 11.5 -62.5t29.5 -52.5l125 -152l158 119q31 29 52 67t21 81q0 88 -55 146.5t-141 58.5 q-90 0 -145.5 -58.5t-55.5 -146.5zM221 389q0 -59 21.5 -109.5t60.5 -87t91 -57t112 -20.5q63 0 120.5 23.5t94.5 62.5l-356 428l-39 -29q-43 -35 -74 -91.5t-31 -119.5z" />
<glyph unicode="'" horiz-adv-x="335" d="M102 1438h131l-10 -469h-108z" />
<glyph unicode="(" horiz-adv-x="505" d="M102 174v926q0 84 15.5 146.5t47.5 109.5t80 85t113 75l39 -107q-31 -18 -62.5 -40.5t-58 -55.5t-44 -81t-17.5 -116v-954q0 -72 17.5 -120t45 -82t61.5 -56.5t64 -40.5l-47 -105q-66 37 -112.5 75t-78.5 85t-47.5 109.5t-15.5 146.5z" />
<glyph unicode=")" horiz-adv-x="503" d="M102 -135q31 18 64 39.5t60.5 55.5t45 82t17.5 120v954q0 68 -17.5 116t-44 81t-59.5 55.5t-62 40.5l39 107q66 -37 114 -75t80 -85t47 -109.5t15 -146.5v-926q0 -84 -15 -145.5t-47 -109.5t-80 -85t-112 -74z" />
<glyph unicode="*" horiz-adv-x="849" d="M102 1141l39 110l221 -92v244h119v-248q12 6 28.5 12.5t41 17.5t63.5 26.5t99 37.5l35 -108l-234 -86l150 -189l-95 -71l-145 194l-66 -92q-14 -23 -35.5 -51.5t-33.5 -50.5l-94 65l137 195q-29 10 -52.5 20t-52.5 21q-27 8 -62.5 21.5t-62.5 23.5z" />
<glyph unicode="+" horiz-adv-x="886" d="M102 584v112h285v285h113v-285h284v-112h-284v-287h-113v287h-285z" />
<glyph unicode="," horiz-adv-x="370" d="M102 -27l33 76q-2 8 -2 19q0 27 21.5 46t46.5 19q27 0 47 -19.5t20 -45.5q0 -23 -12 -41l-86 -86z" />
<glyph unicode="-" horiz-adv-x="886" d="M102 584v112h682v-112h-682z" />
<glyph unicode="." horiz-adv-x="337" d="M102 68q0 27 19.5 46t48.5 19q25 0 45.5 -19.5t20.5 -45.5q0 -27 -20.5 -47.5t-45.5 -20.5q-29 0 -48.5 20.5t-19.5 47.5z" />
<glyph unicode="/" horiz-adv-x="821" d="M102 0l498 1434h119l-496 -1434h-121z" />
<glyph unicode="0" horiz-adv-x="1079" d="M102 389v610q0 111 32 192t90.5 135t139 81t181.5 27q211 0 321.5 -118t110.5 -319v-608q0 -117 -39 -195.5t-100.5 -127t-139 -69t-155.5 -20.5t-157 20.5t-141.5 69t-102.5 127t-40 195.5zM217 389q0 -84 29.5 -140t77 -91t104.5 -50.5t115 -15.5q57 0 114.5 15.5 t103.5 50.5t74.5 91t28.5 140v608q0 150 -82 236t-237 86q-150 0 -239 -79t-89 -241v-610z" />
<glyph unicode="1" horiz-adv-x="577" d="M102 1253q55 14 85 21.5t42 13.5q35 16 75 49t75 95h96v-1432h-113v1235q-29 -20 -55 -34.5t-51 -24.5q-45 -18 -127 -31z" />
<glyph unicode="2" horiz-adv-x="946" d="M102 0v88l560 784q33 51 51 105.5t18 101.5q0 49 -17.5 93.5t-49 77t-74.5 51t-94 18.5q-61 0 -107.5 -18.5t-78 -48t-52 -67.5t-33.5 -77l-110 31q18 53 46.5 105t75 94t110 68t149.5 26q76 0 140 -27t110.5 -75t72 -112.5t25.5 -138.5q0 -63 -22.5 -134t-71.5 -138 l-490 -692h584v-115h-742z" />
<glyph unicode="3" horiz-adv-x="1015" d="M102 217l91 66q53 -80 127.5 -127t164.5 -47q68 0 125.5 23.5t100.5 64.5t66.5 98t23.5 125q0 66 -26.5 122t-69.5 98t-100.5 65.5t-119.5 23.5h-153v109h153q45 0 89 17t79 48t55.5 74t20.5 96t-18.5 99.5t-50 80t-76.5 53t-97 19.5q-80 0 -142 -49t-95 -129l-109 39 q47 117 138.5 184.5t207.5 67.5q78 0 142.5 -28t111.5 -76t74 -114.5t27 -146.5q0 -90 -42 -162.5t-106 -119.5q104 -49 161.5 -145.5t57.5 -225.5q0 -92 -31.5 -170t-89 -135.5t-136 -89t-171.5 -31.5q-117 0 -216 60.5t-167 162.5z" />
<glyph unicode="4" horiz-adv-x="1052" d="M102 410v88l627 938h94v-912h127v-114h-127v-410h-112v410h-609zM258 524h453v676l-113 -168q-90 -131 -170 -252t-170 -256z" />
<glyph unicode="5" horiz-adv-x="1036" d="M102 229l101 60q49 -80 129 -130t162 -50q76 0 136 28.5t103 74.5t65.5 105.5t22.5 120.5t-22.5 119.5t-63.5 105t-101.5 74t-135.5 27.5h-312l70 670h578v-111h-472l-53 -446h189q100 0 181 -38t138 -99.5t87 -140.5t30 -161q0 -84 -31 -163.5t-88 -142t-139 -100.5 t-182 -38q-55 0 -110.5 16.5t-107 47t-96.5 74.5t-78 97z" />
<glyph unicode="6" horiz-adv-x="1085" d="M102 438v506q0 74 24 160t81 158.5t153.5 122t243.5 49.5q109 0 199 -37t162 -94l-76 -86q-57 49 -128 77.5t-157 28.5q-113 0 -187.5 -38t-119.5 -95t-63.5 -123t-18.5 -123v-213q72 82 160 114t168 32q92 0 172 -34t140 -93.5t94 -139.5t34 -172t-34 -173t-94 -141.5 t-140 -95t-172 -34.5t-172 34.5t-140.5 95t-94.5 141.5t-34 173zM215 438q0 -68 25.5 -128t69.5 -105t104.5 -70.5t128.5 -25.5t128 25.5t104 70.5t70.5 105.5t26.5 127.5q0 68 -26.5 127.5t-70.5 103.5t-104.5 69.5t-127.5 25.5q-68 0 -126.5 -24.5t-102.5 -65.5 t-70.5 -98.5t-28.5 -120.5v-17z" />
<glyph unicode="7" horiz-adv-x="1030" d="M102 0l678 1321h-676v113h824v-86l-697 -1348h-129z" />
<glyph unicode="8" horiz-adv-x="1069" d="M102 424q0 123 64.5 220t161.5 153q-59 47 -102.5 119.5t-43.5 160.5q0 80 27 146.5t74 114.5t112.5 76t143.5 28t142 -28t111.5 -76t74 -114.5t26.5 -146.5q0 -90 -42 -162.5t-106 -119.5q104 -49 163 -145.5t59 -225.5q0 -92 -33 -170t-90.5 -135.5t-136 -89 t-170.5 -31.5t-172 31.5t-138.5 89t-91.5 135.5t-33 170zM217 424q0 -68 24.5 -124t67.5 -98t101.5 -65.5t126.5 -23.5t125 23.5t100 65.5t66.5 98t23.5 124q0 66 -26.5 122t-69.5 98t-100.5 65.5t-118.5 23.5q-66 0 -124.5 -23.5t-101.5 -65.5t-68.5 -98t-25.5 -122z M295 1077q0 -51 21.5 -94t55.5 -74.5t78 -49t87 -17.5q47 0 91 17.5t77.5 48t54 73.5t20.5 96t-18.5 99.5t-50 80t-76.5 53t-96 19.5q-53 0 -98.5 -19.5t-77 -53t-50 -80t-18.5 -99.5z" />
<glyph unicode="9" horiz-adv-x="1085" d="M102 993q0 92 35 172t94.5 140.5t140.5 94.5t173 34t172 -34t139 -94.5t93 -140.5t34 -172v-506q0 -74 -23.5 -159.5t-81 -160.5t-153.5 -124t-242 -49q-109 0 -198.5 38t-161.5 97l76 86q57 -51 127.5 -78.5t156.5 -27.5q113 0 187.5 37.5t120 94t63.5 123t18 123.5v213 q-72 -80 -160.5 -113.5t-166.5 -33.5q-92 0 -173 34t-140.5 94t-94.5 140t-35 172zM215 993q0 -68 25.5 -127t70.5 -104t105.5 -70.5t128.5 -25.5q66 0 124 24.5t103 66.5t71.5 98t28.5 122v16q0 68 -25.5 128.5t-70.5 104.5t-104.5 70.5t-126.5 26.5q-68 0 -128.5 -26.5 t-105.5 -70.5t-70.5 -104.5t-25.5 -128.5z" />
<glyph unicode=":" horiz-adv-x="337" d="M102 68q0 27 19.5 46t48.5 19q25 0 45.5 -19.5t20.5 -45.5q0 -27 -20.5 -47.5t-45.5 -20.5q-29 0 -48.5 20.5t-19.5 47.5zM102 801q0 29 19.5 48t48.5 19q25 0 45.5 -19.5t20.5 -47.5q0 -25 -20.5 -45.5t-45.5 -20.5q-29 0 -48.5 20.5t-19.5 45.5z" />
<glyph unicode=";" horiz-adv-x="370" d="M102 -27l33 76q-2 8 -2 19q0 27 21.5 46t46.5 19q27 0 47 -19.5t20 -45.5q0 -31 -16 -43l-84 -86zM133 801q0 29 21.5 48t46.5 19q27 0 47 -19.5t20 -47.5q0 -25 -20.5 -45.5t-46.5 -20.5q-25 0 -46.5 20.5t-21.5 45.5z" />
<glyph unicode="&#x3c;" horiz-adv-x="874" d="M102 719l592 590l78 -76l-516 -514l516 -518l-78 -76z" />
<glyph unicode="=" horiz-adv-x="886" d="M102 547v112h682v-112h-682zM102 745v113h682v-113h-682z" />
<glyph unicode="&#x3e;" horiz-adv-x="874" d="M102 201l516 518l-516 514l76 76l594 -590l-594 -594z" />
<glyph unicode="?" horiz-adv-x="950" d="M102 1008q0 82 22.5 156.5t70 131t118 90t166.5 33.5q80 0 147.5 -29.5t117 -79.5t77 -117t27.5 -140q0 -59 -18.5 -120t-57.5 -120q-29 -43 -59.5 -75.5t-63.5 -65.5q-29 -29 -53.5 -55.5t-44 -60.5t-30.5 -78t-11 -103v-150h-113v164q0 70 16.5 125t42 98t58.5 79 t68 69l20 22q43 39 80 92q29 41 42 86.5t13 92.5q0 51 -17.5 97t-50 81t-80.5 56.5t-110 21.5q-111 0 -187.5 -78t-76.5 -223h-113zM387 68q0 27 21.5 46t46.5 19q27 0 47 -19.5t20 -45.5q0 -27 -20.5 -47.5t-46.5 -20.5q-25 0 -46.5 20.5t-21.5 47.5z" />
<glyph unicode="@" horiz-adv-x="1079" d="M102 389v610q0 111 32 192t90.5 135t139 81t181.5 27q211 0 321.5 -118t110.5 -319v-598q0 -63 -45 -107t-109 -44q-53 0 -95 35.5t-54 85.5q-31 -8 -66 -13.5t-63 -5.5q-59 0 -111.5 12.5t-90.5 40t-60.5 73.5t-22.5 114q0 74 24.5 121t66.5 74.5t96.5 38t115.5 10.5h50 q22 0 53 -5q-10 35 -45 58.5t-115 23.5q-92 0 -160 -47l-57 92q51 33 105.5 51.5t111.5 18.5q104 0 160.5 -25.5t82 -66.5t30.5 -91t5 -100v-344q0 -16 11.5 -27.5t27.5 -11.5t28.5 11.5t12.5 27.5v598q0 150 -82 236t-237 86q-150 0 -239 -79t-89 -241v-610 q0 -84 29.5 -140t77 -91t104.5 -50.5t115 -15.5q96 0 211 53l39 -106q-70 -33 -132.5 -47.5t-117.5 -14.5q-78 0 -157 20.5t-141.5 69t-102.5 127t-40 195.5zM375 590q0 -72 50 -98.5t120 -26.5q35 0 66.5 6t60.5 16v228q-29 4 -57 4h-52q-78 0 -133 -26.5t-55 -102.5z" />
<glyph unicode="A" horiz-adv-x="1292" d="M102 0l502 1434h82l504 -1434h-121l-192 543h-469l-185 -543h-121zM453 659h385l-191 541z" />
<glyph unicode="B" horiz-adv-x="1132" d="M102 0v1434h512q90 0 161 -31t119 -82t72.5 -119.5t24.5 -144.5q0 -240 -143 -332q92 -47 137 -135t45 -193q0 -199 -99.5 -298t-285.5 -99h-543zM217 115h428q133 0 200.5 71.5t67.5 210.5q0 53 -17 101.5t-50 84t-83 56t-114 20.5h-432v-544zM217 774h393q129 0 198 73 t69 210q0 53 -17.5 101t-50.5 84t-82 56.5t-113 20.5h-397v-545z" />
<glyph unicode="C" horiz-adv-x="1110" d="M102 461v526q0 123 35 213t98.5 150.5t152.5 89t200 28.5q137 0 242.5 -57t177.5 -162l-99 -65q-53 78 -134 124t-187 46q-170 0 -271.5 -91.5t-101.5 -275.5v-526q0 -186 101.5 -276.5t271.5 -90.5q106 0 187 44t134 124l99 -63q-70 -104 -175.5 -163t-244.5 -59 q-111 0 -200 30t-152.5 89.5t-98.5 150.5t-35 214z" />
<glyph unicode="D" horiz-adv-x="1167" d="M102 0v1434h476q123 0 215 -36t152.5 -98.5t90 -150.5t29.5 -193v-530q0 -123 -36 -205t-97.5 -131t-142 -69.5t-171.5 -20.5h-516zM217 115h401q68 0 129.5 15t106.5 51t71.5 95.5t26.5 149.5v530q0 78 -23.5 144.5t-70.5 115t-117.5 76t-162.5 27.5h-361v-1204z" />
<glyph unicode="E" horiz-adv-x="1095" d="M102 0v1434h891v-115h-776v-547h709v-113h-709v-544h776v-115h-891z" />
<glyph unicode="F" horiz-adv-x="1095" d="M102 0v1434h891v-115h-776v-547h709v-113h-709v-659h-115z" />
<glyph unicode="G" horiz-adv-x="1167" d="M102 434v553q0 123 35 213t98.5 150.5t152.5 89t200 28.5q139 0 244.5 -57t173.5 -162l-95 -65q-53 78 -135 124t-188 46q-170 0 -270.5 -90t-100.5 -277v-553q0 -96 34 -160.5t86 -104.5t117.5 -57.5t131.5 -17.5t131 17.5t117.5 57.5t85 104.5t32.5 160.5v225h-284v113 h397v-772h-113v115q-72 -70 -171 -104t-195 -34q-86 0 -172 24t-156 78t-113 141t-43 214z" />
<glyph unicode="H" horiz-adv-x="1167" d="M102 0v1434h115v-662h735v662h113v-1434h-113v659h-735v-659h-115z" />
<glyph unicode="I" horiz-adv-x="319" d="M102 0v1434h115v-1434h-115z" />
<glyph unicode="J" horiz-adv-x="694" d="M102 -23v117q172 0 273.5 81t101.5 247v1012h115v-1012q0 -113 -35 -197t-99.5 -139t-154.5 -82t-201 -27z" />
<glyph unicode="K" horiz-adv-x="1171" d="M102 0v1434h115v-693q147 170 293.5 345.5t292.5 347.5h149l-501 -603l618 -831h-147l-551 743l-154 -184v-559h-115z" />
<glyph unicode="L" horiz-adv-x="929" d="M102 0v1434h115v-1319h610v-115h-725z" />
<glyph unicode="M" horiz-adv-x="1323" d="M102 0v1434h101l461 -1227l237 641q53 143 110.5 293.5t110.5 292.5h99v-1434h-115v1077l-203 -540q-49 -131 -102 -268.5t-101 -268.5h-82l-401 1077v-1077h-115z" />
<glyph unicode="N" horiz-adv-x="1095" d="M102 0v1434h101l676 -1176v1176h114v-1434h-100l-676 1169v-1169h-115z" />
<glyph unicode="O" horiz-adv-x="1167" d="M102 434v553q0 123 35 213t98.5 150.5t152.5 89t200 28.5q233 0 355 -130t122 -353v-551q0 -127 -42 -214t-110.5 -141t-154.5 -78t-172 -24t-172 24t-156 78t-113 141t-43 214zM217 434q0 -96 34 -160.5t86 -104.5t117.5 -57.5t131.5 -17.5t131 17.5t117.5 57.5 t85 104.5t32.5 160.5v551q0 172 -92 270.5t-272 98.5q-170 0 -270.5 -90t-100.5 -277v-553z" />
<glyph unicode="P" horiz-adv-x="1120" d="M102 0v1434h535q92 0 162.5 -31t120 -82t74 -119.5t24.5 -144.5q0 -197 -99.5 -296t-285.5 -99h-418v-662h-113zM215 774h418q133 0 200.5 73t67.5 210q0 53 -17.5 101t-50 84t-83 56.5t-113.5 20.5h-422v-545z" />
<glyph unicode="Q" horiz-adv-x="1183" d="M102 434v553q0 123 35 213t98.5 150.5t152.5 89t200 28.5q233 0 356 -130t123 -353v-551q0 -92 -23.5 -163.5t-64.5 -125.5l102 -104l-77 -78l-101 103q-70 -53 -150.5 -71t-166.5 -18t-172 24t-156 78t-113 141t-43 214zM217 434q0 -96 34 -160.5t86 -104.5t117.5 -57.5 t131.5 -17.5q59 0 119.5 11.5t109.5 46.5l-219 223l78 78l223 -224q23 39 39 90.5t16 114.5v551q0 172 -92 270.5t-272 98.5q-170 0 -270.5 -90t-100.5 -277v-553z" />
<glyph unicode="R" horiz-adv-x="1150" d="M102 0v1434h535q92 0 162.5 -31t120 -82t74 -119.5t24.5 -144.5q0 -197 -99.5 -296t-285.5 -99h-17q45 -72 90.5 -139.5t90.5 -137.5l252 -385h-140l-428 662h-264v-662h-115zM217 774h416q133 0 201.5 73t68.5 210q0 53 -17.5 101t-51 84t-83 56.5t-114.5 20.5h-420 v-545z" />
<glyph unicode="S" horiz-adv-x="1202" d="M102 422h115q2 -59 26.5 -117.5t73 -104.5t119 -76t162.5 -30q104 0 177 22.5t120 63.5t68.5 97.5t21.5 123.5q0 63 -36 110.5t-92 82.5t-129 60.5t-146 50.5q-86 27 -166 56.5t-141.5 71t-98.5 100t-37 142.5q0 94 39 165t104.5 118t151.5 71.5t182 24.5 q92 0 177.5 -25.5t151 -78t104 -130t41.5 -180.5h-115q-2 74 -31 129.5t-78 93t-113.5 56t-136.5 18.5q-74 0 -139 -16t-114.5 -50t-78 -83t-28.5 -113q0 -53 30.5 -91t81 -66.5t116 -52t134.5 -46.5q86 -29 172.5 -61.5t155 -79.5t111.5 -113.5t43 -163.5q0 -92 -28 -169.5 t-88 -134t-155.5 -88.5t-230.5 -32q-121 0 -213 40t-153.5 104.5t-94.5 143.5t-35 157z" />
<glyph unicode="T" horiz-adv-x="1095" d="M102 1319v115h891v-115h-393v-1319h-117v1319h-381z" />
<glyph unicode="U" horiz-adv-x="1167" d="M102 434v1002h115v-1002q0 -96 34 -160.5t86 -104.5t117.5 -57.5t131.5 -17.5t131 17.5t117.5 57.5t85 104.5t32.5 160.5v1002h113v-1002q0 -127 -42 -214t-110.5 -141t-154.5 -78t-172 -24t-172 24t-156 78t-113 141t-43 214z" />
<glyph unicode="V" horiz-adv-x="1241" d="M102 1434h123l396 -1205q94 291 192 586t201 619h125l-465 -1434h-105z" />
<glyph unicode="W" horiz-adv-x="1652" d="M102 1434h123l299 -1149q18 82 38 173t48.5 219t68.5 309t99 448h103l254 -1155q74 287 147.5 577.5t144.5 577.5h123l-368 -1434h-103l-252 1110l-247 -1110h-105z" />
<glyph unicode="X" horiz-adv-x="1339" d="M102 0l498 745q-111 168 -226.5 335t-234.5 354h137l394 -584l391 584h141l-461 -689l496 -745h-141l-426 639l-424 -639h-144z" />
<glyph unicode="Y" horiz-adv-x="1267" d="M102 1434h138l393 -584l391 584h141l-475 -707v-727h-112v723z" />
<glyph unicode="Z" horiz-adv-x="1214" d="M102 0v88l848 1231h-803v115h965v-88l-850 -1231h850v-115h-1010z" />
<glyph unicode="[" horiz-adv-x="587" d="M102 -217v1714h383v-111h-270v-1488h270v-115h-383z" />
<glyph unicode="\" horiz-adv-x="823" d="M102 1434h121l498 -1434h-119z" />
<glyph unicode="]" horiz-adv-x="587" d="M102 -102h271v1488h-271v111h383v-1714h-383v115z" />
<glyph unicode="^" horiz-adv-x="831" d="M102 1116l318 301l309 -307l-76 -76l-233 230l-244 -234z" />
<glyph unicode="_" horiz-adv-x="886" d="M102 -35v113h682v-113h-682z" />
<glyph unicode="`" horiz-adv-x="487" d="M102 1430h158l125 -289h-115z" />
<glyph unicode="a" horiz-adv-x="1011" d="M102 344q0 111 38 182.5t102.5 113.5t149.5 57.5t179 15.5q53 0 108.5 -4t115.5 -11q-6 43 -22.5 85t-52.5 74t-94.5 51.5t-148.5 19.5q-82 0 -143.5 -17.5t-110.5 -48.5l-71 94q66 39 144.5 62.5t180.5 23.5q162 0 249 -40.5t128 -104t48 -141.5t7 -154v-608h-112v26 q-59 -23 -127 -34t-127 -11q-92 2 -172 21.5t-140.5 61.5t-94.5 112t-34 174zM217 344q0 -72 25.5 -120t69.5 -77.5t103.5 -43t127.5 -13.5t132 14.5t122 40.5v439q-57 6 -114.5 11t-111.5 5q-74 0 -138 -11t-112.5 -40t-76 -79t-27.5 -126z" />
<glyph unicode="b" d="M102 0v1434h113v-435q61 20 130 32.5t136 12.5q76 0 147.5 -17t127 -58t89.5 -109.5t34 -171.5v-354q0 -121 -50.5 -194.5t-134.5 -112.5q-43 -23 -102.5 -34t-120.5 -11q-68 0 -130 8t-126 37v-27h-113zM215 152q57 -29 122.5 -42.5t133.5 -13.5q57 0 110.5 12.5 t94.5 40t65.5 72.5t24.5 111v356q0 70 -23.5 116t-63.5 73.5t-91 40t-107 12.5q-76 0 -145.5 -14.5t-120.5 -34.5v-729z" />
<glyph unicode="c" horiz-adv-x="897" d="M102 381v242q0 106 30 186t82 132t124 77.5t154 25.5q66 0 141.5 -21.5t161.5 -59.5l-45 -103q-72 35 -137.5 52.5t-120.5 17.5q-57 0 -108.5 -18.5t-89.5 -56.5t-59.5 -96.5t-21.5 -135.5v-242q0 -115 38 -177.5t124 -88.5q61 -20 145 -21q51 0 113.5 10.5t134.5 24.5 l27 -106q-74 -20 -143.5 -31.5t-131.5 -11.5q-47 0 -93 5t-87 19q-121 43 -179.5 132t-58.5 245z" />
<glyph unicode="d" d="M102 334v354q0 102 33 171t88.5 110t127 58t149.5 17q68 0 136.5 -13t129.5 -34v437h113v-1434h-113v27q-59 -23 -128 -34t-128 -11q-61 0 -120.5 11t-104.5 34q-82 39 -132.5 112.5t-50.5 194.5zM215 332q0 -66 24.5 -111t65.5 -72.5t94.5 -40t110.5 -12.5 q68 0 133.5 13.5t122.5 42.5v727q-51 16 -127 33.5t-139 17.5q-55 0 -106.5 -12.5t-91.5 -40t-63.5 -73.5t-23.5 -116v-356z" />
<glyph unicode="e" horiz-adv-x="962" d="M102 291v391q0 86 29 153.5t79 113.5t120.5 70.5t156.5 24.5q180 0 276.5 -96t96.5 -262v-217h-645v-180q0 -100 67.5 -151.5t166.5 -51.5q66 0 148.5 25.5t176.5 78.5l55 -100q-86 -49 -181 -81t-185 -34h-19q-154 0 -248 77t-94 239zM215 582h533v106q0 70 -24 117 t-61.5 74.5t-85 39t-92.5 11.5q-47 0 -95 -12.5t-87 -41t-63.5 -75.5t-24.5 -117v-102z" />
<glyph unicode="f" horiz-adv-x="622" d="M102 0v1092q0 94 27 159.5t72 105.5t100 58.5t115 18.5q23 0 46 -2t58 -9v-114q-35 6 -64.5 9t-39.5 3q-37 0 -73 -11.5t-63.5 -38t-45 -70.5t-17.5 -109v-54h285v-114h-285v-924h-115z" />
<glyph unicode="g" d="M102 326v366q0 119 50.5 192.5t132.5 112.5q45 23 104.5 34t120.5 11q68 0 130 -8t126 -35v25h113v-1094q0 -164 -95.5 -239.5t-246.5 -75.5h-19q-88 2 -183 32.5t-183 84.5l55 96q94 -51 177 -77.5t148 -26.5q98 0 166 51t68 151v94q-59 -23 -130 -34t-140 -11 q-59 0 -114.5 8.5t-96.5 30.5q-82 41 -132.5 116t-50.5 196zM215 332q0 -70 23.5 -117t63.5 -74.5t91 -40t107 -12.5q76 0 145.5 14.5t120.5 34.5v733q-119 57 -256 58q-57 0 -110.5 -12.5t-94.5 -40t-65.5 -72.5t-24.5 -111v-360z" />
<glyph unicode="h" d="M102 0v1432h113v-433q59 23 127 34t129 11t120.5 -11t102.5 -34q84 -39 134.5 -112.5t50.5 -194.5v-692h-113v694q0 66 -23.5 111t-63.5 73.5t-92 41t-110 12.5q-68 0 -137.5 -16.5t-124.5 -41.5v-874h-113z" />
<glyph unicode="i" horiz-adv-x="331" d="M102 1360q0 61 66 61q61 0 61 -61q0 -66 -61 -66q-66 0 -66 66zM111 0v1026h112v-1026h-112z" />
<glyph unicode="j" horiz-adv-x="507" d="M102 -291q55 8 90 27.5t54.5 44t27 51.5t7.5 49v1145h114v-1145q0 -37 -11 -80t-36.5 -80.5t-66.5 -68.5t-101 -45q-10 -4 -20 -5t-29 -1zM276 1360q0 33 18.5 47t47.5 14q63 0 64 -61q0 -66 -64 -66q-29 0 -47.5 15.5t-18.5 50.5z" />
<glyph unicode="k" horiz-adv-x="1017" d="M102 0v1434h115v-861q129 111 251 231t255 238h168l-447 -411l471 -631h-141l-414 549q-18 -16 -46.5 -43t-96.5 -86v-420h-115z" />
<glyph unicode="l" horiz-adv-x="317" d="M102 0v1434h113v-1434h-113z" />
<glyph unicode="m" horiz-adv-x="1466" d="M102 0v1026h115v-27q57 23 120.5 34t119.5 11q86 0 158.5 -24.5t117.5 -71.5l82 43q57 31 113.5 42t107.5 11q70 0 130.5 -23.5t104.5 -68.5t68.5 -110.5t24.5 -149.5v-692h-115v690q0 125 -62.5 181.5t-154.5 56.5q-45 0 -89 -11.5t-87 -31.5l-72 -35q10 -39 11.5 -90 t1.5 -90v-670h-113v750q0 49 -18.5 83.5t-50 55t-72.5 30t-86 9.5q-68 0 -129.5 -15.5t-110.5 -38.5v-874h-115z" />
<glyph unicode="n" d="M102 0v1026h113v-27q59 23 127 34t129 11t120.5 -11t102.5 -34q84 -39 134.5 -112.5t50.5 -194.5v-692h-113v694q0 66 -24.5 111t-65.5 72.5t-94.5 40t-110.5 12.5q-137 0 -256 -58v-872h-113z" />
<glyph unicode="o" horiz-adv-x="989" d="M102 387v250q0 199 101.5 305.5t292.5 106.5q186 0 288.5 -110t102.5 -302v-250q0 -78 -21.5 -151.5t-69.5 -131t-122 -91t-178 -33.5q-102 0 -176 33.5t-122 91t-72 131t-24 151.5zM215 387q0 -57 16.5 -110.5t51 -93.5t87 -64.5t126.5 -24.5t127 24.5t85.5 64.5 t48 93.5t15.5 110.5v250q0 139 -70.5 218t-205.5 79q-137 0 -209 -76t-72 -221v-250z" />
<glyph unicode="p" d="M102 -385v1409h113v-25q59 20 127 31.5t129 11.5t120.5 -11t102.5 -32q84 -41 134.5 -114.5t50.5 -192.5v-356q0 -102 -34 -171t-89.5 -110t-127 -58t-147.5 -17q-66 0 -135.5 14t-130.5 33v-412h-113zM215 145q51 -16 126 -33.5t140 -17.5q55 0 106.5 12.5t91.5 40 t63.5 73.5t23.5 116v356q0 66 -24.5 111t-65.5 72.5t-94.5 40t-110.5 12.5q-137 0 -256 -58v-725z" />
<glyph unicode="q" d="M102 336v356q0 119 50.5 192.5t132.5 112.5q45 23 104.5 34t120.5 11q68 0 130 -8t126 -35v25h113v-1409h-113v412q-61 -23 -130 -35t-136 -12q-78 0 -149.5 17t-127 58t-88.5 110t-33 171zM215 336q0 -70 23.5 -116t63.5 -73.5t91 -40t107 -12.5q76 0 145.5 14.5 t120.5 34.5v727q-119 57 -256 58q-57 0 -110.5 -12.5t-94.5 -40t-65.5 -72.5t-24.5 -111v-356z" />
<glyph unicode="r" horiz-adv-x="763" d="M102 0v1026h113v-78q51 47 123 74t158 27q35 0 75.5 -6.5t90.5 -22.5l-23 -117q-45 14 -82 22.5t-61 8.5q-137 0 -209 -76t-72 -221v-637h-113z" />
<glyph unicode="s" horiz-adv-x="966" d="M102 313h113q4 -43 21.5 -84t51.5 -73.5t85 -52t121 -19.5q119 0 188.5 55.5t69.5 134.5q0 43 -25 75t-63.5 55.5t-90 41t-102.5 33.5q-63 20 -122.5 42t-106.5 52.5t-76 75.5t-29 111q0 51 18.5 102t60.5 93t109.5 69t163.5 27t164 -31t110 -78t61.5 -105.5t19.5 -115.5 h-113q0 37 -12 75t-41 69.5t-75 51t-114 19.5q-66 0 -111.5 -16.5t-73.5 -42t-40 -56t-12 -61.5t22.5 -56.5t58.5 -45t81 -36t90 -30.5q66 -20 130 -44t115.5 -59.5t83 -88t31.5 -126.5q0 -66 -25.5 -121t-73.5 -95t-116.5 -62.5t-154.5 -22.5q-98 0 -169 30t-119 77 t-73 108.5t-31 124.5z" />
<glyph unicode="t" horiz-adv-x="684" d="M102 414v1020h113v-408h287v-115h-287v-497q0 -162 100.5 -242t266.5 -80v-115q-109 0 -197 27t-151.5 81t-97.5 136t-34 193z" />
<glyph unicode="u" d="M102 334v692h113v-694q0 -66 24.5 -111t65.5 -72.5t94.5 -40t110.5 -12.5q68 0 133.5 13.5t122.5 42.5v874h113v-1026h-113v27q-59 -23 -128 -34t-128 -11q-61 0 -120.5 11t-104.5 34q-82 39 -132.5 112.5t-50.5 194.5z" />
<glyph unicode="v" horiz-adv-x="1042" d="M102 1026h115l303 -809q76 203 154 405.5t151 403.5h115l-381 -1026h-72z" />
<glyph unicode="w" horiz-adv-x="1492" d="M102 1026h115l256 -784q53 186 109.5 376.5t122.5 407.5h81l232 -778l258 778h115l-340 -1026h-82l-224 756l-221 -756h-80z" />
<glyph unicode="x" horiz-adv-x="972" d="M102 0l320 510l-311 516h135l243 -403l246 403h135l-313 -514q80 -133 161 -267t146 -245h-131l-248 410q-20 -29 -41.5 -63t-51.5 -81t-68.5 -111.5t-94.5 -154.5h-127z" />
<glyph unicode="y" d="M102 326v700h113v-694q0 -70 23.5 -117t63.5 -74.5t91 -40t107 -12.5q76 0 145.5 14.5t120.5 34.5v889h113v-1096q0 -164 -95.5 -239.5t-246.5 -75.5h-19q-88 2 -183 32.5t-183 84.5l55 96q94 -51 177 -77.5t148 -26.5q98 0 166 51t68 151v94q-59 -23 -130 -34t-140 -11 q-59 0 -114.5 8.5t-96.5 30.5q-82 41 -132.5 116t-50.5 196z" />
<glyph unicode="z" horiz-adv-x="937" d="M102 0v86l578 825h-535v115h691v-86l-578 -825h578v-115h-734z" />
<glyph unicode="{" horiz-adv-x="661" d="M102 631l39 37q16 16 37 37.5t38 43t29.5 42t12.5 34.5v275q0 84 16.5 145.5t48 109.5t80 86t113.5 75l41 -107q-31 -18 -62.5 -40.5t-59 -55.5t-45 -81t-17.5 -116v-291q0 -29 -11.5 -55.5t-28 -51t-35.5 -46t-38 -39.5q39 -39 76 -90t37 -105v-276q0 -72 17.5 -120 t45 -82t60 -55.5t63.5 -37.5l-43 -111q-66 37 -114 75t-79.5 86t-48 110.5t-16.5 146.5v264q0 14 -15.5 38t-39 50.5t-50.5 54.5z" />
<glyph unicode="|" horiz-adv-x="315" d="M102 -94v1528h111v-1528h-111z" />
<glyph unicode="}" horiz-adv-x="663" d="M102 -133q31 18 64 39.5t60.5 54.5t46 81t18.5 120v276q0 53 34.5 104.5t73.5 90.5q-35 35 -71.5 85t-36.5 107v291q0 68 -17.5 116t-45 82t-60.5 55.5t-64 39.5l43 107q63 -37 111.5 -75t81.5 -85t48 -109.5t15 -146.5v-275q0 -14 12.5 -34.5t31 -42t39 -43t36.5 -37.5 l39 -37q-25 -23 -52.5 -50.5t-51 -54t-39 -50t-15.5 -38.5v-264q0 -84 -15 -146.5t-48 -109.5t-81 -85t-112 -75z" />
<glyph unicode="~" horiz-adv-x="1056" d="M102 457q72 82 135.5 112.5t124.5 30.5q41 0 82 -9t82 -24q8 -2 15.5 -5t15.5 -5q43 -16 87 -28.5t95 -12.5q27 0 61 15.5t74 56.5l80 -82q-61 -59 -114.5 -81t-100.5 -22t-97 13.5t-103 29.5q-2 0 -3 1.5t-4 1.5q-45 16 -87 27t-83 11q-37 0 -79.5 -22.5t-96.5 -83.5z " />
<glyph unicode="&#xa1;" horiz-adv-x="337" d="M102 950q0 29 19.5 48.5t48.5 19.5q25 0 45.5 -19.5t20.5 -48.5q0 -25 -20.5 -45t-45.5 -20q-29 0 -48.5 20t-19.5 45zM109 -385l4 1178h112l4 -1178h-120z" />
<glyph unicode="&#xa2;" horiz-adv-x="897" d="M102 381v242q0 96 27 169.5t72 126t105.5 83t129.5 40.5v97h111v-97q55 -6 116.5 -28.5t131.5 -50.5l-45 -103q-59 29 -107.5 45.5t-95.5 22.5v-834q111 6 225 35l23 -109q-63 -16 -127 -26t-121 -14v-74h-111v76q-29 4 -53.5 10t-42.5 12q-129 41 -183.5 129t-54.5 248z M213 381q0 -115 34 -176.5t111 -83.5q33 -16 78 -23v828q-94 -16 -158.5 -91t-64.5 -212v-242z" />
<glyph unicode="&#xa3;" horiz-adv-x="1103" d="M102 0v90q45 25 85 62.5t69 82t45 94.5t16 99v8q0 102 -36 205h-136v113h95q-23 66 -36.5 132t-13.5 128q0 92 30 166.5t84 128t128 82t162 28.5q80 0 143.5 -19.5t106.5 -47.5l-37 -111l-8 4q-39 20 -90.5 42t-114.5 22q-70 0 -124 -24.5t-91 -65.5t-56.5 -95.5 t-19.5 -113.5q0 -43 16.5 -111t42.5 -145h269v-113h-230q10 -45 21.5 -106.5t11.5 -114.5q0 -80 -32.5 -163t-86.5 -142h279q104 0 185 45t134 123l88 -72q-66 -100 -169 -155.5t-238 -55.5h-492z" />
<glyph unicode="&#xa5;" horiz-adv-x="1247" d="M102 1403h138l383 -572q96 141 193 286t192 286h137l-412 -608h234v-115h-287v-86h287v-113h-287v-481h-115v481h-282v113h282v86h-282v115h227q-47 70 -99.5 147.5t-105.5 157.5t-105.5 156.5t-97.5 146.5z" />
<glyph unicode="&#xa6;" horiz-adv-x="315" d="M102 -94v663h111v-663h-111zM102 770v664h111v-664h-111z" />
<glyph unicode="&#xa7;" horiz-adv-x="966" d="M102 45h113q4 -43 21.5 -84t51.5 -72.5t85 -51t121 -19.5q119 0 188.5 54t69.5 132q0 45 -25 78t-63.5 56.5t-90 41t-102.5 33.5q-63 18 -122.5 39.5t-106.5 52.5t-76 75t-29 109q0 76 38 149t140 110q-80 35 -129 84t-49 143q0 49 18.5 100t60.5 93t109.5 68t163.5 26 t164 -30t110 -77t61.5 -105.5t19.5 -113.5h-113q0 37 -12 75t-41 69.5t-75 51t-114 19.5q-66 0 -111.5 -16.5t-73.5 -42t-40 -57t-12 -60.5q0 -31 22.5 -56.5t58.5 -45t81 -36t90 -30.5q66 -20 130 -45t115.5 -60.5t83 -87t31.5 -127.5q0 -80 -36.5 -145.5t-108.5 -103.5 q66 -37 105.5 -90.5t39.5 -143.5q0 -66 -25.5 -120t-73.5 -95t-116.5 -63.5t-154.5 -22.5q-98 0 -169 29.5t-119 78t-73 110t-31 124.5zM252 489q0 -31 20.5 -54t54 -41.5t76.5 -35t86 -30.5l76 -25q37 6 70 21.5t59.5 38t42 54.5t15.5 70q0 61 -41 98.5t-101 59.5 q-47 20 -121 21q-66 0 -111.5 -16.5t-73.5 -41t-40 -56.5t-12 -63z" />
<glyph unicode="&#xa8;" horiz-adv-x="641" d="M102 1430q0 27 21.5 47t46.5 20q27 0 47.5 -20.5t20.5 -46.5q0 -25 -20.5 -46.5t-47.5 -21.5q-25 0 -46.5 21.5t-21.5 46.5zM403 1430q0 27 21.5 47t46.5 20q27 0 47.5 -20.5t20.5 -46.5q0 -25 -20.5 -46.5t-47.5 -21.5q-25 0 -46.5 21.5t-21.5 46.5z" />
<glyph unicode="&#xa9;" horiz-adv-x="1626" d="M102 702q0 158 59.5 288t158 224.5t227.5 145.5t268 51q147 0 276.5 -54t225.5 -149.5t151.5 -225.5t55.5 -280q0 -158 -60.5 -289.5t-161 -226t-227.5 -146.5t-260 -52q-137 0 -265 52t-227.5 145.5t-160 225t-60.5 291.5zM217 702q0 -135 50 -245.5t134 -189.5 t191.5 -122t222.5 -43q111 0 218.5 44t192.5 123t136 189.5t51 243.5q0 125 -47 235t-128 190.5t-190.5 126.5t-232.5 46q-119 0 -226.5 -44t-190.5 -122.5t-132 -189.5t-49 -242zM375 698q0 94 29.5 180.5t85 152t137.5 105.5t186 40q74 0 142.5 -27t125 -75t95 -116.5 t53.5 -152.5h-111q-6 37 -27.5 82t-59.5 83t-91 64.5t-125 26.5q-84 0 -145.5 -32t-102.5 -83t-60.5 -115.5t-19.5 -128.5q0 -61 16.5 -125.5t55.5 -117.5t102.5 -88t155.5 -35q66 0 118 25.5t90 65.5t60.5 86t28.5 89h121q-20 -86 -61 -155.5t-96.5 -120t-122 -77 t-138.5 -26.5q-104 0 -186 36t-139.5 100.5t-87 150.5t-29.5 188z" />
<glyph unicode="&#xaa;" horiz-adv-x="727" d="M102 893q0 72 24 118t64.5 73.5t95 38t115.5 10.5h52q23 0 51 -5q-10 35 -45 58.5t-115 23.5q-43 0 -82 -10t-76 -37l-59 94q51 33 105.5 50.5t111.5 17.5q104 0 161.5 -25.5t83 -65.5t31 -90t5.5 -100v-382l-113 4q-33 -10 -65.5 -12.5t-63.5 -2.5q-57 2 -108.5 13.5 t-89.5 39t-60.5 73.5t-22.5 116zM215 893q0 -74 49 -101.5t119 -27.5q66 0 129 27v221q-29 4 -53.5 5t-57.5 1q-78 0 -132 -24.5t-54 -100.5z" />
<glyph unicode="&#xab;" horiz-adv-x="1105" d="M102 545l408 409l80 -80l-328 -329l324 -320l-72 -94zM518 545l408 409l78 -80l-328 -329l45 -45q29 -29 47 -45q55 -53 118.5 -114.5t114.5 -115.5l-71 -94z" />
<glyph unicode="&#xac;" horiz-adv-x="1705" />
<glyph unicode="&#xad;" horiz-adv-x="886" d="M102 584v112h682v-112h-682z" />
<glyph unicode="&#xae;" horiz-adv-x="1628" d="M102 707q0 156 57.5 285.5t155 223t227.5 145.5t275 52q143 0 272.5 -52t226.5 -145.5t153.5 -223.5t56.5 -285q0 -158 -56.5 -289t-153.5 -226.5t-226 -147.5t-273 -52q-139 0 -268 52t-228.5 146.5t-159 225.5t-59.5 291zM217 707q0 -133 49 -244t132 -189.5 t191.5 -123t227.5 -44.5q123 0 231.5 44.5t189.5 124t129 189t48 243.5q0 131 -48 240.5t-129 188t-189.5 123t-231.5 44.5t-232.5 -44.5t-191.5 -123t-129 -188t-47 -240.5zM479 272v904h367q68 0 123 -20.5t95 -57.5t62.5 -87t22.5 -108q0 -109 -53.5 -171t-139.5 -89 q55 -88 121 -186.5t121 -184.5h-131l-231 359h-244v-359h-113zM592 743h262q20 0 51 5.5t60.5 21.5t50 48t20.5 85q0 47 -18.5 78t-48 48.5t-63.5 24.5t-64 7h-250v-318z" />
<glyph unicode="&#xaf;" horiz-adv-x="698" d="M102 1384v113h494v-113h-494z" />
<glyph unicode="&#xb0;" horiz-adv-x="827" d="M102 1108q0 63 25 119.5t67 99.5t98 67.5t122 24.5q63 0 119.5 -24.5t99.5 -67.5t67.5 -99.5t24.5 -119.5q0 -66 -24.5 -123t-67.5 -99t-99.5 -65.5t-119.5 -23.5q-66 0 -122 23.5t-98 65.5t-67 99t-25 123zM217 1108q0 -37 13.5 -72t39 -63.5t61.5 -46t83 -17.5t84 17.5 t62.5 46t38.5 63.5t13 72t-13 73t-38.5 64.5t-62.5 46t-84 17.5t-83 -17.5t-61.5 -46t-39 -64.5t-13.5 -73z" />
<glyph unicode="&#xb1;" horiz-adv-x="886" d="M102 0v115h682v-115h-682zM102 584v112h285v285h113v-285h284v-112h-284v-287h-113v287h-285z" />
<glyph unicode="&#xb2;" horiz-adv-x="688" d="M102 526v82l336 465q18 25 25.5 54.5t7.5 52.5q0 51 -30.5 85.5t-80.5 34.5q-63 0 -97 -41.5t-48 -89.5l-113 25q12 39 34 78t52.5 69.5t72.5 50t99 19.5q100 0 163 -66.5t63 -164.5q0 -41 -12.5 -85t-45.5 -87l-145 -199q-35 -49 -60.5 -83t-62.5 -85h326v-115h-484z " />
<glyph unicode="&#xb3;" horiz-adv-x="737" d="M102 688l97 60q63 -106 159 -107q72 0 118 43t46 115q0 68 -50 112.5t-114 44.5h-112v113h112q49 0 86 32t37 85t-34.5 88t-86.5 35q-41 0 -74.5 -30t-52.5 -79l-108 37q35 86 96.5 136t138.5 50q102 0 168 -66.5t66 -170.5q0 -109 -70 -166q53 -35 82 -92.5t29 -128.5 q0 -59 -20.5 -109.5t-57.5 -87.5t-87 -57.5t-112 -20.5q-72 0 -139.5 44t-116.5 120z" />
<glyph unicode="&#xb4;" horiz-adv-x="487" d="M102 1145l125 289h158l-166 -289h-117z" />
<glyph unicode="&#xb5;" horiz-adv-x="1705" />
<glyph unicode="&#x3bc;" horiz-adv-x="1705" />
<glyph unicode="&#xb6;" horiz-adv-x="1228" d="M102 1130q0 74 25 140.5t73 117t116.5 80t158.5 29.5h651v-1810h-110v1693h-121l-2 -1693h-113v1054h-301q-180 0 -278.5 97t-98.5 292z" />
<glyph unicode="&#xb7;" horiz-adv-x="337" d="M102 641q0 29 19.5 48.5t48.5 19.5q25 0 45.5 -19.5t20.5 -48.5q0 -25 -20.5 -45.5t-45.5 -20.5q-29 0 -48.5 20.5t-19.5 45.5z" />
<glyph unicode="&#xb8;" horiz-adv-x="700" d="M102 -342l54 117q57 -41 100 -51.5t72 -10.5q59 0 108 21.5t49 75.5q0 35 -26.5 51t-63.5 16q-31 0 -71 -10l-109 -43l-43 70l150 194h137l-76 -98h12q37 0 73 -9.5t64.5 -31t47 -56t18.5 -83.5q0 -61 -24.5 -102.5t-64.5 -64t-88 -31.5t-95 -9q-41 0 -98.5 15t-125.5 40 z" />
<glyph unicode="&#xb9;" horiz-adv-x="477" d="M102 1290l88 23q20 8 45 29.5t46 60.5h94v-875h-113v691l-29 -13q-16 -4 -42.5 -10t-61.5 -10z" />
<glyph unicode="&#xba;" horiz-adv-x="710" d="M102 915v146q0 129 65.5 197.5t188.5 68.5t187.5 -71.5t64.5 -194.5v-146q0 -51 -14 -99t-44 -85t-78 -58.5t-116 -21.5t-115.5 21.5t-78.5 58.5t-45.5 85t-14.5 99zM215 915q0 -59 34 -105t107 -46q76 0 109 46t33 105v146q0 72 -38 111.5t-104 39.5q-141 0 -141 -151 v-146z" />
<glyph unicode="&#xbb;" horiz-adv-x="1105" d="M102 874l78 80l408 -409l-412 -414l-72 94l326 320zM516 874l80 80l408 -409l-412 -414l-72 94l324 320z" />
<glyph unicode="&#xbc;" horiz-adv-x="1318" d="M102 1292l84 21q23 8 46.5 30.5t43.5 59.5h95v-875h-111v691q-8 -4 -16 -7.5t-13 -5.5q-16 -6 -42.5 -11t-63.5 -9zM281 0l487 1403h119l-488 -1403h-118zM670 223v76l381 575h90v-538h76v-113h-76v-223h-113v223h-358zM823 336h205v301q-33 -47 -59.5 -86t-51 -74 t-47 -68.5t-47.5 -72.5z" />
<glyph unicode="&#xbd;" horiz-adv-x="1318" d="M102 1292l84 21q23 8 46.5 30.5t43.5 59.5h95v-875h-111v691q-8 -4 -16 -7.5t-13 -5.5q-16 -6 -42.5 -11t-63.5 -9zM281 0l487 1403h119l-488 -1403h-118zM731 0v82l336 465q20 29 27.5 56.5t7.5 49.5q0 51 -31 85t-84 34q-61 0 -95 -41t-48 -88l-113 25q12 39 32.5 78.5 t51.5 70.5t74 50.5t98 19.5q104 0 167 -66.5t63 -167.5q0 -41 -13.5 -85t-46.5 -87l-127 -176q-20 -27 -36.5 -49.5t-33 -44t-34 -45t-37.5 -51.5h328v-115h-486z" />
<glyph unicode="&#xbe;" horiz-adv-x="1538" d="M102 688l97 60q31 -53 72.5 -80t86.5 -27q72 0 118 43t46 115q0 68 -50 112.5t-114 44.5h-112v113h112q49 0 85 32t36 85t-33.5 88t-85.5 35q-41 0 -74.5 -30t-52.5 -79l-108 37q35 86 96.5 136t138.5 50q102 0 168 -66.5t66 -170.5q0 -51 -19.5 -94t-48.5 -72 q51 -35 80 -92.5t29 -128.5q0 -59 -20.5 -109.5t-57.5 -87.5t-87 -57.5t-112 -20.5q-72 0 -139.5 44t-116.5 120zM500 0l487 1403h119l-488 -1403h-118zM887 223v74l381 577h92v-538h76v-113h-76v-223h-115v223h-358zM1040 336h205v301q-31 -47 -57.5 -86t-50 -75t-47 -69.5 t-50.5 -70.5z" />
<glyph unicode="&#xbf;" horiz-adv-x="950" d="M102 -16q0 59 18.5 119.5t57.5 119.5q33 43 62.5 76t60.5 63q29 27 54.5 54.5t44 61.5t29.5 78t11 106v147h113v-164q0 -70 -16.5 -124t-42 -97t-58.5 -79t-65 -69l-17 -16q-23 -23 -43 -46.5t-41 -51.5q-29 -41 -43 -88t-14 -90q0 -51 17.5 -97.5t51 -82t82 -56 t111.5 -20.5q53 0 100.5 19.5t83 58t56 94t20.5 127.5h113q0 -82 -22.5 -157t-68.5 -131t-117 -90t-165 -34q-82 0 -150.5 29.5t-117.5 81t-77 118t-28 140.5zM428 969q0 25 21.5 46t46.5 21q27 0 47 -21.5t20 -45.5q0 -27 -20.5 -47.5t-46.5 -20.5q-25 0 -46.5 20.5 t-21.5 47.5z" />
<glyph unicode="&#xc0;" horiz-adv-x="1292" d="M102 0l502 1434h82l504 -1434h-121l-192 543h-467l-187 -543h-121zM453 659h385l-191 541zM496 1831h161l127 -295h-120z" />
<glyph unicode="&#xc1;" horiz-adv-x="1292" d="M102 0l502 1434h82l504 -1434h-121l-192 543h-467l-91 -258l-96 -285h-121zM453 659h385l-191 541q-12 -35 -26.5 -69.5t-26.5 -69.5q-39 -109 -71.5 -204.5t-69.5 -197.5zM510 1536l129 295h160l-170 -295h-119z" />
<glyph unicode="&#xc2;" horiz-adv-x="1292" d="M102 0l502 1434h82l504 -1434h-121l-192 543h-469l-185 -543h-121zM309 1606l344 329l328 -329l-88 -86l-242 247l-256 -247zM453 659h385l-191 541z" />
<glyph unicode="&#xc3;" horiz-adv-x="1292" d="M102 0l502 1434h82l504 -1434h-121l-192 543h-469l-185 -543h-121zM289 1608q68 76 124 103.5t105 27.5q45 0 85 -14.5t79 -32.5l23 -11q25 -10 50 -18t52 -8q25 0 58.5 19.5t82.5 66.5l62 -105q-59 -55 -109.5 -76.5t-95.5 -21.5t-88 15.5t-78 31.5l6 -2q-4 0 -6 1t-4 1 q-33 14 -62.5 24.5t-56.5 10.5q-29 0 -66.5 -25.5t-93.5 -89.5zM453 659h385l-191 541z" />
<glyph unicode="&#xc4;" horiz-adv-x="1292" d="M102 0l502 1434h82l504 -1434h-121l-192 543h-469l-185 -543h-121zM426 1604q0 29 19.5 49t48.5 20q27 0 47 -20.5t20 -48.5q0 -25 -20.5 -46.5t-46.5 -21.5q-29 0 -48.5 21.5t-19.5 46.5zM453 659h385l-191 541zM733 1604q0 29 20.5 49t49.5 20q25 0 46 -20.5t21 -48.5 q0 -25 -21.5 -46.5t-45.5 -21.5q-29 0 -49.5 21.5t-20.5 46.5z" />
<glyph unicode="&#xc5;" horiz-adv-x="1292" d="M102 0l502 1434h82l504 -1434h-121l-192 543h-469l-185 -543h-121zM387 1772q0 51 21.5 97t57.5 82t83 56.5t98 20.5t97.5 -20.5t82 -56.5t56 -82t20.5 -97t-20.5 -98.5t-56 -83.5t-82 -57.5t-97.5 -21.5t-98 21.5t-83 57.5t-57.5 83.5t-21.5 98.5zM453 659h385l-191 541 zM508 1772q0 -59 40 -99.5t99 -40.5q57 0 97 40t40 100q0 57 -39.5 97t-97.5 40q-59 0 -99 -40t-40 -97z" />
<glyph unicode="&#xc6;" horiz-adv-x="1587" d="M102 0l502 1434h881v-115h-776v-547h708v-113h-708v-544h772v-115h-889v543h-182l-91 -258l-96 -285h-121zM455 659h137v394l-47 -135q-23 -66 -43 -127.5t-47 -131.5z" />
<glyph unicode="&#xc7;" horiz-adv-x="1110" d="M102 461v526q0 123 35 213t98.5 150.5t152.5 89t200 28.5q137 0 242.5 -57t177.5 -162l-99 -65q-53 78 -134 124t-187 46q-170 0 -271.5 -91.5t-101.5 -275.5v-526q0 -186 101.5 -276.5t271.5 -90.5q106 0 187 44t134 124l99 -63q-63 -96 -156.5 -152.5t-214.5 -66.5 l-47 -62h12q37 0 73 -9t64.5 -30.5t47 -56.5t18.5 -84q0 -61 -24.5 -102.5t-64.5 -64t-88 -31.5t-96 -9q-41 0 -98 15.5t-125 39.5l53 117q57 -41 100.5 -51t72.5 -10q59 0 108 21.5t49 74.5q0 35 -26.5 51t-63.5 16q-31 0 -72 -10l-108 -43l-43 70l123 162 q-182 20 -291 138t-109 339z" />
<glyph unicode="&#xc8;" horiz-adv-x="1095" d="M102 0v1434h891v-115h-776v-547h709v-113h-709v-544h772v-115h-887zM397 1831h160l129 -295h-119z" />
<glyph unicode="&#xc9;" horiz-adv-x="1095" d="M102 0v1434h891v-115h-776v-547h709v-113h-709v-544h772v-115h-887zM410 1536l127 295h161l-168 -295h-120z" />
<glyph unicode="&#xca;" horiz-adv-x="1095" d="M102 0v1434h891v-115h-776v-547h709v-113h-709v-544h772v-115h-887zM213 1608l340 329l332 -329l-88 -86l-246 247l-252 -247z" />
<glyph unicode="&#xcb;" horiz-adv-x="1095" d="M102 0v1434h891v-115h-776v-547h709v-113h-709v-544h772v-115h-887zM326 1604q0 29 21.5 49t47.5 20q27 0 47.5 -20.5t20.5 -48.5q0 -25 -20.5 -46.5t-47.5 -21.5t-48 21.5t-21 46.5zM635 1604q0 29 21.5 49t45.5 20q29 0 48.5 -20.5t19.5 -48.5q0 -25 -19.5 -46.5 t-48.5 -21.5q-25 0 -46 21.5t-21 46.5z" />
<glyph unicode="&#xcc;" horiz-adv-x="493" d="M102 1831h160l129 -295h-121zM193 0v1434h116v-1434h-116z" />
<glyph unicode="&#xcd;" horiz-adv-x="491" d="M102 1536l129 295h158l-168 -295h-119zM180 0v1434h117v-1434h-117z" />
<glyph unicode="&#xce;" horiz-adv-x="874" d="M102 1610l340 329l330 -329l-86 -86l-246 248l-252 -248zM379 0v1434h115v-1434h-115z" />
<glyph unicode="&#xcf;" horiz-adv-x="649" d="M102 1604q0 29 21.5 49t46.5 20q29 0 48.5 -20.5t19.5 -48.5q0 -25 -19.5 -46.5t-48.5 -21.5q-25 0 -46.5 21.5t-21.5 46.5zM268 0v1434h113v-1434h-113zM410 1604q0 29 20.5 49t48.5 20q25 0 46.5 -20.5t21.5 -48.5q0 -25 -21.5 -46.5t-46.5 -21.5q-29 0 -49 21.5 t-20 46.5z" />
<glyph unicode="&#xd0;" horiz-adv-x="1265" d="M102 659v113h99v662h475q123 0 215 -36t152.5 -98.5t90 -150.5t29.5 -193v-530q0 -123 -35.5 -205t-97 -131t-142.5 -69.5t-171 -20.5h-516v659h-99zM315 115h402q68 0 129 15t106 51t72 95.5t27 149.5v530q0 78 -23.5 144.5t-71 115t-118 76t-162.5 27.5h-361v-547h486 v-113h-486v-544z" />
<glyph unicode="&#xd1;" horiz-adv-x="1095" d="M102 0v1434h101l676 -1176v1176h114v-1434h-100l-676 1169v-1169h-115zM188 1608q72 74 128.5 101.5t103.5 27.5q45 0 87 -15.5t83 -33.5l12 -7q27 -12 54.5 -20t54.5 -8t58.5 19.5t78.5 66.5l61 -105q-61 -55 -111 -76.5t-91 -21.5q-43 0 -86 15.5t-82 29.5 q-29 14 -61 25.5t-62 11.5q-25 0 -64 -25.5t-94 -89.5z" />
<glyph unicode="&#xd2;" horiz-adv-x="1167" d="M102 434v553q0 123 35 213t98.5 150.5t152.5 89t200 28.5q233 0 355 -130t122 -353v-551q0 -127 -42 -214t-110.5 -141t-154.5 -78t-172 -24t-172 24t-156 78t-113 141t-43 214zM217 434q0 -96 34 -160.5t86 -104.5t117.5 -57.5t131.5 -17.5t131 17.5t117.5 57.5 t85 104.5t32.5 160.5v551q0 172 -92 270.5t-272 98.5q-170 0 -270.5 -90t-100.5 -277v-553zM434 1831h160l129 -295h-119z" />
<glyph unicode="&#xd3;" horiz-adv-x="1167" d="M102 434v553q0 123 35 213t98.5 150.5t152.5 89t200 28.5q233 0 355 -130t122 -353v-551q0 -127 -42 -214t-110.5 -141t-154.5 -78t-172 -24t-172 24t-156 78t-113 141t-43 214zM217 434q0 -96 34 -160.5t86 -104.5t117.5 -57.5t131.5 -17.5t131 17.5t117.5 57.5 t85 104.5t32.5 160.5v551q0 172 -92 270.5t-272 98.5q-170 0 -270.5 -90t-100.5 -277v-553zM446 1536l127 295h160l-168 -295h-119z" />
<glyph unicode="&#xd4;" horiz-adv-x="1167" d="M102 434v553q0 123 35 213t98.5 150.5t152.5 89t200 28.5q233 0 355 -130t122 -353v-551q0 -127 -42 -214t-110.5 -141t-154.5 -78t-172 -24t-172 24t-156 78t-113 141t-43 214zM217 434q0 -96 34 -160.5t86 -104.5t117.5 -57.5t131.5 -17.5t131 17.5t117.5 57.5 t85 104.5t32.5 160.5v551q0 172 -92 270.5t-272 98.5q-170 0 -270.5 -90t-100.5 -277v-553zM250 1610l340 329l330 -329l-86 -86l-246 248l-252 -248z" />
<glyph unicode="&#xd5;" horiz-adv-x="1167" d="M102 434v553q0 123 35 213t98.5 150.5t152.5 89t200 28.5q233 0 355 -130t122 -353v-551q0 -127 -42 -214t-110.5 -141t-154.5 -78t-172 -24t-172 24t-156 78t-113 141t-43 214zM217 434q0 -96 34 -160.5t86 -104.5t117.5 -57.5t131.5 -17.5t131 17.5t117.5 57.5 t85 104.5t32.5 160.5v551q0 172 -92 270.5t-272 98.5q-170 0 -270.5 -90t-100.5 -277v-553zM223 1612q72 74 128.5 101.5t103.5 27.5q45 0 87 -15.5t83 -33.5l14 -6q29 -12 54.5 -20.5t51.5 -8.5q23 0 57 19.5t81 68.5l61 -107q-59 -55 -109.5 -76.5t-93.5 -21.5 q-41 0 -83 14.5t-78 30.5q-2 0 -3.5 1t-3.5 1q-29 12 -61.5 23.5t-60.5 11.5q-29 0 -67 -25.5t-93 -89.5z" />
<glyph unicode="&#xd6;" horiz-adv-x="1167" d="M102 434v553q0 123 35 213t98.5 150.5t152.5 89t200 28.5q233 0 355 -130t122 -353v-551q0 -127 -42 -214t-110.5 -141t-154.5 -78t-172 -24t-172 24t-156 78t-113 141t-43 214zM217 434q0 -96 34 -160.5t86 -104.5t117.5 -57.5t131.5 -17.5t131 17.5t117.5 57.5 t85 104.5t32.5 160.5v551q0 172 -92 270.5t-272 98.5q-170 0 -270.5 -90t-100.5 -277v-553zM362 1604q0 29 22 49t46 20q29 0 49.5 -20.5t20.5 -48.5q0 -25 -20.5 -46.5t-49.5 -21.5q-25 0 -46.5 21.5t-21.5 46.5zM672 1604q0 29 19.5 49t47.5 20q27 0 47.5 -20.5 t20.5 -48.5q0 -25 -20.5 -46.5t-47.5 -21.5q-29 0 -48 21.5t-19 46.5z" />
<glyph unicode="&#xd7;" horiz-adv-x="768" d="M102 440l201 201l-201 199l80 80l201 -203l203 203l80 -78l-203 -203l203 -203l-80 -78l-203 201l-201 -201z" />
<glyph unicode="&#xd8;" horiz-adv-x="1167" d="M102 434v553q0 123 35 213t98.5 150.5t152.5 89t200 28.5q49 0 96 -6t88 -20l10 26h123l-31 -75q92 -59 141.5 -163t49.5 -245v-551q0 -127 -42 -214t-110.5 -141t-154.5 -78t-172 -24q-96 0 -187 33l-10 -33h-123l29 76q-82 53 -137.5 146.5t-55.5 234.5zM217 434 q0 -98 32 -162.5t85 -105.5l403 1165q-31 10 -69.5 16.5t-79.5 6.5q-170 0 -270.5 -90t-100.5 -277v-553zM432 117q35 -10 75 -16.5t79 -6.5q66 0 131 17.5t117.5 57.5t85 104.5t32.5 160.5v551q0 94 -31.5 168t-84.5 123q-104 -293 -202 -577.5t-202 -581.5z" />
<glyph unicode="&#xd9;" horiz-adv-x="1167" d="M102 434v1002h115v-1002q0 -96 34 -160.5t86 -104.5t117.5 -57.5t131.5 -17.5t131 17.5t117.5 57.5t85 104.5t32.5 160.5v1002h113v-1002q0 -127 -42 -214t-110.5 -141t-154.5 -78t-172 -24t-172 24t-156 78t-113 141t-43 214zM432 1831h160l129 -295h-119z" />
<glyph unicode="&#xda;" horiz-adv-x="1167" d="M102 434v1002h115v-1002q0 -96 34 -160.5t86 -104.5t117.5 -57.5t131.5 -17.5t131 17.5t117.5 57.5t85 104.5t32.5 160.5v1002h113v-1002q0 -127 -42 -214t-110.5 -141t-154.5 -78t-172 -24t-172 24t-156 78t-113 141t-43 214zM444 1536l127 295h162l-170 -295h-119z" />
<glyph unicode="&#xdb;" horiz-adv-x="1167" d="M102 434v1002h115v-1002q0 -96 34 -160.5t86 -104.5t117.5 -57.5t131.5 -17.5t131 17.5t117.5 57.5t85 104.5t32.5 160.5v1002h113v-1002q0 -127 -42 -214t-110.5 -141t-154.5 -78t-172 -24t-172 24t-156 78t-113 141t-43 214zM248 1606l340 329l330 -329l-87 -86 l-245 247l-252 -247z" />
<glyph unicode="&#xdc;" horiz-adv-x="1167" d="M102 434v1002h115v-1002q0 -96 34 -160.5t86 -104.5t117.5 -57.5t131.5 -17.5t131 17.5t117.5 57.5t85 104.5t32.5 160.5v1002h113v-1002q0 -127 -42 -214t-110.5 -141t-154.5 -78t-172 -24t-172 24t-156 78t-113 141t-43 214zM360 1604q0 29 21.5 49t46.5 20 q29 0 49.5 -20.5t20.5 -48.5q0 -25 -20.5 -46.5t-49.5 -21.5q-25 0 -46.5 21.5t-21.5 46.5zM670 1604q0 29 19.5 49t47.5 20q27 0 47.5 -20.5t20.5 -48.5q0 -25 -20.5 -46.5t-47.5 -21.5q-29 0 -48 21.5t-19 46.5z" />
<glyph unicode="&#xdd;" horiz-adv-x="1267" d="M102 1434h138l393 -584l391 584h141l-475 -707v-727h-112v723zM498 1536l127 295h159l-170 -295h-116z" />
<glyph unicode="&#xde;" horiz-adv-x="1120" d="M102 0v1434h113v-314h422q92 0 162.5 -29.5t120 -81t74 -119t24.5 -142.5q0 -199 -99.5 -299.5t-285.5 -100.5h-418v-348h-113zM215 465h418q268 0 268 283q0 53 -17.5 100t-50 83t-83 56.5t-113.5 20.5h-422v-543z" />
<glyph unicode="&#xdf;" horiz-adv-x="1069" d="M102 0v1055q0 80 27 146.5t75 114.5t113.5 75.5t143.5 27.5h78q78 0 142 -23.5t111.5 -67.5t74 -106.5t26.5 -142.5q0 -92 -41 -164.5t-104 -119.5q96 -51 157.5 -149.5t61.5 -219.5q0 -92 -33 -170t-90.5 -135.5t-136 -89t-170.5 -31.5h-252v115h252q68 0 125 23.5 t100 64.5t66.5 98t23.5 125q0 63 -29.5 119.5t-79 98.5t-113 65.5t-132.5 23.5v111q53 0 104 17.5t91 48t63.5 73.5t23.5 96q0 106 -68.5 168t-172.5 62h-78q-53 0 -98.5 -19.5t-77 -53.5t-50 -80t-18.5 -101v-1055h-115z" />
<glyph unicode="&#xe0;" horiz-adv-x="1011" d="M102 344q0 111 38 182.5t102.5 113.5t149.5 57.5t179 15.5q53 0 108.5 -4t115.5 -11q-6 43 -22.5 85t-52.5 74t-94.5 51.5t-148.5 19.5q-82 0 -143.5 -17.5t-110.5 -48.5l-71 94q66 39 144.5 62.5t180.5 23.5q162 0 249 -40.5t128 -104t48 -141.5t7 -154v-608h-112v26 q-59 -23 -127 -34t-127 -11q-92 2 -172 21.5t-140.5 61.5t-94.5 112t-34 174zM217 344q0 -72 25.5 -120t69.5 -77.5t103.5 -43t127.5 -13.5t132 14.5t122 40.5v439q-57 6 -114.5 11t-111.5 5q-74 0 -138 -11t-112.5 -40t-76 -79t-27.5 -126zM360 1446h156l127 -291h-117z " />
<glyph unicode="&#xe1;" horiz-adv-x="1011" d="M102 344q0 111 38 182.5t102.5 113.5t149.5 57.5t179 15.5q53 0 108.5 -4t115.5 -11q-6 43 -22.5 85t-52.5 74t-94.5 51.5t-148.5 19.5q-82 0 -143.5 -17.5t-110.5 -48.5l-71 94q66 39 144.5 62.5t180.5 23.5q162 0 249 -40.5t128 -104t48 -141.5t7 -154v-608h-112v26 q-59 -23 -127 -34t-127 -11q-92 2 -172 21.5t-140.5 61.5t-94.5 112t-34 174zM217 344q0 -72 25.5 -120t69.5 -77.5t103.5 -43t127.5 -13.5t132 14.5t122 40.5v439q-57 6 -114.5 11t-111.5 5q-74 0 -138 -11t-112.5 -40t-76 -79t-27.5 -126zM371 1155l125 291h157l-164 -291 h-118z" />
<glyph unicode="&#xe2;" horiz-adv-x="1011" d="M102 344q0 111 38 182.5t102.5 113.5t149.5 57.5t179 15.5q53 0 108.5 -4t115.5 -11q-6 43 -22.5 85t-52.5 74t-94.5 51.5t-148.5 19.5q-82 0 -143.5 -17.5t-110.5 -48.5l-71 94q66 39 144.5 62.5t180.5 23.5q162 0 249 -40.5t128 -104t48 -141.5t7 -154v-608h-112v26 q-59 -23 -127 -34t-127 -11q-92 2 -172 21.5t-140.5 61.5t-94.5 112t-34 174zM178 1227l334 321l324 -321l-86 -84l-240 239q-59 -57 -123.5 -120.5t-124.5 -118.5zM217 344q0 -72 25.5 -120t69.5 -77.5t103.5 -43t127.5 -13.5t132 14.5t122 40.5v439q-57 6 -114.5 11 t-111.5 5q-74 0 -138 -11t-112.5 -40t-76 -79t-27.5 -126z" />
<glyph unicode="&#xe3;" horiz-adv-x="1011" d="M102 344q0 111 38 182.5t102.5 113.5t149.5 57.5t179 15.5q53 0 108.5 -4t115.5 -11q-6 43 -22.5 85t-52.5 74t-94.5 51.5t-148.5 19.5q-82 0 -143.5 -17.5t-110.5 -48.5l-71 94q66 39 144.5 62.5t180.5 23.5q162 0 249 -40.5t128 -104t48 -141.5t7 -154v-608h-112v26 q-59 -23 -127 -34t-127 -11q-92 2 -172 21.5t-140.5 61.5t-94.5 112t-34 174zM154 1225q68 72 124 99.5t103 27.5q39 0 77 -13.5t77 -29.5l22 -11q29 -14 55.5 -23t51.5 -9q23 0 55.5 20.5t79.5 69.5l59 -107q-57 -55 -107.5 -75.5t-91.5 -20.5q-43 0 -85 14.5t-78 32.5 q-29 10 -59.5 21.5t-59.5 11.5q-27 0 -65 -23.5t-91 -89.5zM217 344q0 -72 25.5 -120t69.5 -77.5t103.5 -43t127.5 -13.5t132 14.5t122 40.5v439q-57 6 -114.5 11t-111.5 5q-74 0 -138 -11t-112.5 -40t-76 -79t-27.5 -126zM547 1305q10 0 10 -7z" />
<glyph unicode="&#xe4;" horiz-adv-x="1011" d="M102 344q0 111 38 182.5t102.5 113.5t149.5 57.5t179 15.5q53 0 108.5 -4t115.5 -11q-6 43 -22.5 85t-52.5 74t-94.5 51.5t-148.5 19.5q-82 0 -143.5 -17.5t-110.5 -48.5l-71 94q66 39 144.5 62.5t180.5 23.5q162 0 249 -40.5t128 -104t48 -141.5t7 -154v-608h-112v26 q-59 -23 -127 -34t-127 -11q-92 2 -172 21.5t-140.5 61.5t-94.5 112t-34 174zM217 344q0 -72 25.5 -120t69.5 -77.5t103.5 -43t127.5 -13.5t132 14.5t122 40.5v439q-57 6 -114.5 11t-111.5 5q-74 0 -138 -11t-112.5 -40t-76 -79t-27.5 -126zM289 1223q0 25 20.5 46t44.5 21 q29 0 48.5 -21.5t19.5 -45.5q0 -27 -19.5 -47.5t-48.5 -20.5q-25 0 -45 20.5t-20 47.5zM590 1223q0 25 20.5 46t44.5 21q29 0 48.5 -21.5t19.5 -45.5q0 -27 -19.5 -47.5t-48.5 -20.5q-25 0 -45 20.5t-20 47.5z" />
<glyph unicode="&#xe5;" horiz-adv-x="1011" d="M102 344q0 111 38 182.5t102.5 113.5t149.5 57.5t179 15.5q53 0 108.5 -4t115.5 -11q-6 43 -22.5 85t-52.5 74t-94.5 51.5t-148.5 19.5q-82 0 -143.5 -17.5t-110.5 -48.5l-71 94q66 39 144.5 62.5t180.5 23.5q162 0 249 -40.5t128 -104t48 -141.5t7 -154v-608h-112v26 q-59 -23 -127 -34t-127 -11q-92 2 -172 21.5t-140.5 61.5t-94.5 112t-34 174zM217 344q0 -72 25.5 -120t69.5 -77.5t103.5 -43t127.5 -13.5t132 14.5t122 40.5v439q-57 6 -114.5 11t-111.5 5q-74 0 -138 -11t-112.5 -40t-76 -79t-27.5 -126zM254 1380q0 51 20.5 96.5 t55.5 80t81 55t95 20.5q51 0 97 -20.5t81 -55t55.5 -79.5t20.5 -97q0 -51 -20.5 -96t-55.5 -80t-81 -55.5t-97 -20.5q-49 0 -95 20.5t-81 55.5t-55.5 80t-20.5 96zM371 1380q0 -57 40 -97t95 -40q57 0 96 40t39 97q0 53 -39 93t-96 40q-55 0 -95 -40t-40 -93z" />
<glyph unicode="&#xe6;" horiz-adv-x="1658" d="M102 344q0 111 38 182.5t102.5 113.5t149.5 57.5t179 15.5q51 0 107.5 -4t114.5 -11q-4 45 -18.5 86t-49.5 73t-94.5 51.5t-153.5 19.5q-82 0 -143.5 -17.5t-110.5 -48.5l-71 94q66 39 145.5 62.5t179.5 23.5q154 0 245 -45t134 -106q47 76 133 114.5t195 38.5 q178 0 275 -96t97 -262v-217h-645v-180q0 -100 68 -151.5t166 -51.5q66 0 148.5 25.5t174.5 78.5l58 -100q-86 -49 -183.5 -81t-185.5 -34h-16q-68 0 -127.5 17.5t-102.5 48.5v-47h-114v29q-57 -23 -123 -35.5t-131 -12.5q-90 0 -170 18.5t-140.5 61.5t-95.5 114t-35 175z M217 344q0 -72 25.5 -120t69.5 -77.5t103.5 -43t127.5 -13.5t132 14.5t122 40.5v439q-57 6 -114.5 11t-111.5 5q-74 0 -138 -11t-112.5 -40t-76 -79t-27.5 -126zM911 582h531v106q0 70 -23.5 117t-61.5 74.5t-84 39t-91 11.5q-47 0 -95.5 -12.5t-87 -41t-63.5 -75.5 t-25 -117v-102z" />
<glyph unicode="&#xe7;" horiz-adv-x="897" d="M102 381v242q0 106 30 186t82 132t124 77.5t154 25.5q66 0 141.5 -21.5t161.5 -59.5l-45 -103q-72 35 -137.5 52.5t-120.5 17.5q-57 0 -108.5 -18.5t-89.5 -56.5t-59.5 -96.5t-21.5 -135.5v-242q0 -115 38 -177.5t124 -88.5q61 -20 145 -21q51 0 113.5 10.5t134.5 24.5 l27 -106q-74 -20 -143.5 -31.5t-131.5 -11.5l-33 -35h13q37 0 72.5 -9.5t64.5 -31t47 -56t18 -84.5q0 -61 -24.5 -102t-64.5 -63.5t-88 -31.5t-95 -9q-41 0 -98.5 15t-124.5 40l53 117q57 -41 100 -51.5t72 -10.5q59 0 108.5 21.5t49.5 74.5q0 35 -26.5 51.5t-63.5 16.5 q-31 0 -72 -10l-109 -43l-43 69l111 144l-47 12q-121 43 -179.5 132t-58.5 245z" />
<glyph unicode="&#xe8;" horiz-adv-x="962" d="M102 291v391q0 86 29 153.5t79 113.5t120.5 70.5t156.5 24.5q180 0 276.5 -96t96.5 -262v-217h-645v-180q0 -100 67.5 -151.5t166.5 -51.5q66 0 148.5 25.5t176.5 78.5l55 -100q-86 -49 -181 -81t-185 -34h-19q-154 0 -248 77t-94 239zM215 582h533v106q0 70 -24 117 t-61.5 74.5t-85 39t-92.5 11.5q-47 0 -95 -12.5t-87 -41t-63.5 -75.5t-24.5 -117v-102zM334 1448h158l124 -291h-116z" />
<glyph unicode="&#xe9;" horiz-adv-x="962" d="M102 291v391q0 86 29 153.5t79 113.5t120.5 70.5t156.5 24.5q180 0 276.5 -96t96.5 -262v-217h-645v-180q0 -100 67.5 -151.5t166.5 -51.5q66 0 148.5 25.5t176.5 78.5l55 -100q-86 -49 -181 -81t-185 -34h-19q-154 0 -248 77t-94 239zM215 582h533v106q0 70 -24 117 t-61.5 74.5t-85 39t-92.5 11.5q-47 0 -95 -12.5t-87 -41t-63.5 -75.5t-24.5 -117v-102zM346 1155l127 291h156l-166 -291h-117z" />
<glyph unicode="&#xea;" horiz-adv-x="962" d="M102 291v391q0 86 29 153.5t79 113.5t120.5 70.5t156.5 24.5q180 0 276.5 -96t96.5 -262v-217h-645v-180q0 -100 67.5 -151.5t166.5 -51.5q66 0 148.5 25.5t176.5 78.5l55 -100q-86 -49 -181 -81t-185 -34h-19q-154 0 -248 77t-94 239zM154 1229l331 321l324 -321 l-84 -84l-240 239q-59 -57 -123.5 -120.5t-123.5 -118.5zM215 582h533v106q0 70 -24 117t-61.5 74.5t-85 39t-92.5 11.5q-47 0 -95 -12.5t-87 -41t-63.5 -75.5t-24.5 -117v-102z" />
<glyph unicode="&#xeb;" horiz-adv-x="962" d="M102 291v391q0 86 29 153.5t79 113.5t120.5 70.5t156.5 24.5q180 0 276.5 -96t96.5 -262v-217h-645v-180q0 -100 67.5 -151.5t166.5 -51.5q66 0 148.5 25.5t176.5 78.5l55 -100q-86 -49 -181 -81t-185 -34h-19q-154 0 -248 77t-94 239zM215 582h533v106q0 70 -24 117 t-61.5 74.5t-85 39t-92.5 11.5q-47 0 -95 -12.5t-87 -41t-63.5 -75.5t-24.5 -117v-102zM266 1221q0 25 19.5 46t46.5 21t47 -21.5t20 -45.5q0 -27 -20.5 -47.5t-46.5 -20.5q-27 0 -46.5 20.5t-19.5 47.5zM565 1221q0 25 20.5 46t49.5 21q25 0 45 -21.5t20 -45.5 q0 -27 -20.5 -47.5t-44.5 -20.5q-29 0 -49.5 20.5t-20.5 47.5z" />
<glyph unicode="&#xec;" horiz-adv-x="487" d="M102 1446h158l125 -291h-115zM193 0v1026h112v-1026h-112z" />
<glyph unicode="&#xed;" horiz-adv-x="487" d="M102 1157l125 291h158l-166 -291h-117zM180 0v1026h115v-1026h-115z" />
<glyph unicode="&#xee;" horiz-adv-x="862" d="M102 1221l334 321l324 -321l-88 -84l-238 239q-59 -57 -123.5 -120.5t-124.5 -118.5zM373 0v1026h114v-1026h-114z" />
<glyph unicode="&#xef;" horiz-adv-x="641" d="M102 1223q0 25 21.5 46t46.5 21q27 0 47.5 -21.5t20.5 -45.5q0 -27 -20.5 -47.5t-47.5 -20.5q-25 0 -46.5 20.5t-21.5 47.5zM264 0v1026h113v-1026h-113zM403 1223q0 25 21.5 46t46.5 21q27 0 47.5 -21.5t20.5 -45.5q0 -27 -20.5 -47.5t-47.5 -20.5q-25 0 -46.5 20.5 t-21.5 47.5z" />
<glyph unicode="&#xf0;" horiz-adv-x="1085" d="M102 420q0 92 35 172t94.5 139.5t140.5 93t173 33.5q82 0 169 -26.5t158 -112.5v192q0 59 -21.5 129t-68.5 127l-116 -114l-78 75l112 111q-41 23 -95 37t-122 14q-86 0 -156.5 -27.5t-127.5 -78.5l-76 86q72 59 162 96t198 37q94 0 168 -24.5t129 -59.5q23 25 53.5 53.5 t47.5 44.5l77 -76l-94 -94q63 -76 91 -167t28 -169v-491q0 -92 -34 -173t-93 -141.5t-139 -95.5t-172 -35t-173 35t-140.5 95.5t-94.5 141.5t-35 173zM215 420q0 -68 25.5 -128.5t70.5 -105.5t105.5 -70.5t128.5 -25.5t127 25.5t104 70.5t70.5 105.5t25.5 128.5v16 q-2 63 -28.5 120.5t-71.5 98.5t-103.5 65.5t-123.5 24.5q-68 0 -128.5 -25.5t-105.5 -69.5t-70.5 -103t-25.5 -127z" />
<glyph unicode="&#xf1;" d="M102 0v1026h113v-27q59 23 127 34t129 11t120.5 -11t102.5 -34q84 -39 134.5 -112.5t50.5 -194.5v-692h-113v694q0 66 -24.5 111t-65.5 72.5t-94.5 40t-110.5 12.5q-137 0 -256 -58v-872h-113zM137 1229q70 72 124 99.5t104 27.5q43 0 89 -17.5t87 -35.5 q29 -14 55.5 -23.5t50.5 -9.5q25 0 57.5 20.5t79.5 69.5l62 -107q-59 -55 -109.5 -75.5t-93.5 -20.5q-41 0 -83 15.5t-77 31.5q-31 10 -63.5 21.5t-59.5 11.5t-63.5 -23.5t-91.5 -89.5zM532 1309q8 0 9 -6z" />
<glyph unicode="&#xf2;" horiz-adv-x="989" d="M102 387v250q0 199 101.5 305.5t292.5 106.5q186 0 288.5 -110t102.5 -302v-250q0 -78 -21.5 -151.5t-69.5 -131t-122 -91t-178 -33.5q-102 0 -176 33.5t-122 91t-72 131t-24 151.5zM215 387q0 -57 16.5 -110.5t51 -93.5t87 -64.5t126.5 -24.5t127 24.5t85.5 64.5 t48 93.5t15.5 110.5v250q0 139 -70.5 218t-205.5 79q-137 0 -209 -76t-72 -221v-250zM348 1448h156l127 -291h-117z" />
<glyph unicode="&#xf3;" horiz-adv-x="989" d="M102 387v250q0 199 101.5 305.5t292.5 106.5q186 0 288.5 -110t102.5 -302v-250q0 -78 -21.5 -151.5t-69.5 -131t-122 -91t-178 -33.5q-102 0 -176 33.5t-122 91t-72 131t-24 151.5zM215 387q0 -57 16.5 -110.5t51 -93.5t87 -64.5t126.5 -24.5t127 24.5t85.5 64.5 t48 93.5t15.5 110.5v250q0 139 -70.5 218t-205.5 79q-137 0 -209 -76t-72 -221v-250zM360 1157l125 291h158l-166 -291h-117z" />
<glyph unicode="&#xf4;" horiz-adv-x="989" d="M102 387v250q0 199 101.5 305.5t292.5 106.5q186 0 288.5 -110t102.5 -302v-250q0 -78 -21.5 -151.5t-69.5 -131t-122 -91t-178 -33.5q-102 0 -176 33.5t-122 91t-72 131t-24 151.5zM168 1225l332 321l323 -321l-84 -84l-241 239q-59 -59 -124 -121.5t-124 -117.5z M215 387q0 -57 16.5 -110.5t51 -93.5t87 -64.5t126.5 -24.5t127 24.5t85.5 64.5t48 93.5t15.5 110.5v250q0 139 -70.5 218t-205.5 79q-137 0 -209 -76t-72 -221v-250z" />
<glyph unicode="&#xf5;" horiz-adv-x="989" d="M102 387v250q0 199 101.5 305.5t292.5 106.5q186 0 288.5 -110t102.5 -302v-250q0 -78 -21.5 -151.5t-69.5 -131t-122 -91t-178 -33.5q-102 0 -176 33.5t-122 91t-72 131t-24 151.5zM141 1223q70 72 125.5 99.5t102.5 27.5q43 0 89 -17.5t87 -36.5q29 -14 55.5 -23 t50.5 -9q25 0 57.5 20.5t79.5 67.5l62 -105q-59 -55 -109.5 -75.5t-93.5 -20.5q-41 0 -83 14.5t-79 30.5l-8 4q-29 12 -57.5 21.5t-54.5 9.5q-27 0 -64 -23.5t-92 -89.5zM215 387q0 -57 16.5 -110.5t51 -93.5t87 -64.5t126.5 -24.5t127 24.5t85.5 64.5t48 93.5t15.5 110.5 v250q0 139 -70.5 218t-205.5 79q-137 0 -209 -76t-72 -221v-250zM537 1300q8 0 8 -4z" />
<glyph unicode="&#xf6;" horiz-adv-x="989" d="M102 387v250q0 199 101.5 305.5t292.5 106.5q186 0 288.5 -110t102.5 -302v-250q0 -78 -21.5 -151.5t-69.5 -131t-122 -91t-178 -33.5q-102 0 -176 33.5t-122 91t-72 131t-24 151.5zM215 387q0 -57 16.5 -110.5t51 -93.5t87 -64.5t126.5 -24.5t127 24.5t85.5 64.5 t48 93.5t15.5 110.5v250q0 139 -70.5 218t-205.5 79q-137 0 -209 -76t-72 -221v-250zM276 1212q0 25 20.5 46.5t47.5 21.5t47.5 -21.5t20.5 -46.5q0 -27 -20.5 -47t-47.5 -20t-47.5 20t-20.5 47zM578 1212q0 25 20 46.5t45 21.5q29 0 48.5 -21.5t19.5 -46.5q0 -27 -19.5 -47 t-48.5 -20q-25 0 -45 20t-20 47z" />
<glyph unicode="&#xf7;" horiz-adv-x="886" d="M102 573v115h682v-115h-682zM377 303q0 27 20.5 47.5t46.5 20.5q25 0 46.5 -20.5t21.5 -47.5q0 -25 -21.5 -46t-46.5 -21q-27 0 -47 21t-20 46zM377 956q0 27 20.5 47.5t46.5 20.5q25 0 46.5 -20.5t21.5 -47.5t-21.5 -46t-46.5 -19q-27 0 -47 19t-20 46z" />
<glyph unicode="&#xf8;" horiz-adv-x="989" d="M102 387v250q0 199 101.5 305.5t292.5 106.5q70 0 118 -15q4 12 4 15h115l-16 -58q82 -53 126 -143t44 -211v-250q0 -78 -21.5 -151.5t-69.5 -131t-122 -91t-178 -33.5q-35 0 -65 2t-58 12q-4 -12 -4 -14h-115l16 59q-90 57 -129 147t-39 201zM215 387q0 -68 23.5 -131 t70.5 -104q68 193 134.5 387t134.5 387q-33 8 -82 8q-137 0 -209 -76t-72 -221v-250zM410 102q33 -8 86 -8q74 0 127 24.5t85.5 64.5t48 93.5t15.5 110.5v250q0 82 -22.5 144.5t-73.5 97.5q-68 -201 -131 -387.5t-135 -389.5z" />
<glyph unicode="&#xf9;" d="M102 334v692h113v-694q0 -66 24.5 -111t65.5 -72.5t94.5 -40t110.5 -12.5q68 0 133.5 13.5t122.5 42.5v874h113v-1026h-113v27q-59 -23 -128 -34t-128 -11q-61 0 -120.5 11t-104.5 34q-82 39 -132.5 112.5t-50.5 194.5zM344 1446h158l125 -291h-117z" />
<glyph unicode="&#xfa;" d="M102 334v692h113v-694q0 -66 24.5 -111t65.5 -72.5t94.5 -40t110.5 -12.5q68 0 133.5 13.5t122.5 42.5v874h113v-1026h-113v27q-59 -23 -128 -34t-128 -11q-61 0 -120.5 11t-104.5 34q-82 39 -132.5 112.5t-50.5 194.5zM356 1155l125 291h158l-166 -291h-117z" />
<glyph unicode="&#xfb;" d="M102 334v692h113v-694q0 -66 24.5 -111t65.5 -72.5t94.5 -40t110.5 -12.5q68 0 133.5 13.5t122.5 42.5v874h113v-1026h-113v27q-59 -23 -128 -34t-128 -11q-61 0 -120.5 11t-104.5 34q-82 39 -132.5 112.5t-50.5 194.5zM164 1227l332 321l323 -321l-84 -84l-241 239 q-59 -57 -124 -120.5t-124 -118.5z" />
<glyph unicode="&#xfc;" d="M102 334v692h113v-694q0 -66 24.5 -111t65.5 -72.5t94.5 -40t110.5 -12.5q68 0 133.5 13.5t122.5 42.5v874h113v-1026h-113v27q-59 -23 -128 -34t-128 -11q-61 0 -120.5 11t-104.5 34q-82 39 -132.5 112.5t-50.5 194.5zM274 1223q0 25 19.5 46t46.5 21t47.5 -21.5 t20.5 -45.5q0 -27 -20.5 -47.5t-47.5 -20.5t-46.5 20.5t-19.5 47.5zM573 1223q0 25 20.5 46t47.5 21t46.5 -21.5t19.5 -45.5q0 -27 -19.5 -47.5t-46.5 -20.5t-47.5 20.5t-20.5 47.5z" />
<glyph unicode="&#xfd;" d="M102 326v700h113v-694q0 -70 23.5 -117t63.5 -74.5t91 -40t107 -12.5q76 0 145.5 14.5t120.5 34.5v889h113v-1096q0 -164 -95.5 -239.5t-246.5 -75.5h-19q-88 2 -183 32.5t-183 84.5l55 96q94 -51 177 -77.5t148 -26.5q98 0 166 51t68 151v94q-59 -23 -130 -34t-140 -11 q-59 0 -114.5 8.5t-96.5 30.5q-82 41 -132.5 116t-50.5 196zM356 1155l125 291h158l-166 -291h-117z" />
<glyph unicode="&#xfe;" d="M102 -313v1747h113v-435q61 20 130 32.5t136 12.5q76 0 147.5 -17t127 -58t89.5 -109.5t34 -171.5v-354q0 -121 -50.5 -194.5t-134.5 -112.5q-43 -23 -102.5 -34t-120.5 -11q-68 0 -130 8t-126 37v-340h-113zM215 152q57 -29 122.5 -42.5t133.5 -13.5q57 0 110.5 12.5 t94.5 40t65.5 72.5t24.5 111v356q0 70 -23.5 116t-63.5 73.5t-91 40t-107 12.5q-76 0 -145.5 -14.5t-120.5 -34.5v-729z" />
<glyph unicode="&#xff;" d="M102 326v700h113v-694q0 -70 23.5 -117t63.5 -74.5t91 -40t107 -12.5q76 0 145.5 14.5t120.5 34.5v889h113v-1096q0 -164 -95.5 -239.5t-246.5 -75.5h-19q-88 2 -183 32.5t-183 84.5l55 96q94 -51 177 -77.5t148 -26.5q98 0 166 51t68 151v94q-59 -23 -130 -34t-140 -11 q-59 0 -114.5 8.5t-96.5 30.5q-82 41 -132.5 116t-50.5 196zM274 1225q0 25 19.5 46t46.5 21t47.5 -21.5t20.5 -45.5q0 -27 -20.5 -47.5t-47.5 -20.5t-46.5 20.5t-19.5 47.5zM573 1225q0 25 20.5 46t47.5 21t46.5 -21.5t19.5 -45.5q0 -27 -19.5 -47.5t-46.5 -20.5 t-47.5 20.5t-20.5 47.5z" />
<glyph unicode="&#x152;" horiz-adv-x="1943" d="M102 434v553q0 123 35 213t98.5 150.5t152.5 89t200 28.5q119 0 210 -37.5t152 -105.5v109h891v-115h-776v-547h709v-113h-709v-544h772v-115h-887v115q-72 -72 -169 -105t-195 -33q-86 0 -172 24t-156 78t-113 141t-43 214zM215 434q0 -96 34 -160.5t87 -104.5 t118.5 -57.5t131.5 -17.5q61 0 126.5 18.5t118 56.5t86 98.5t33.5 144.5v573q0 172 -93 270.5t-269 98.5q-170 0 -271.5 -91.5t-101.5 -275.5v-553z" />
<glyph unicode="&#x153;" horiz-adv-x="1634" d="M102 387v250q0 199 102.5 305.5t293.5 106.5q115 0 196.5 -43t130.5 -123q49 86 134 123.5t202 37.5q178 0 274.5 -96t96.5 -262v-217h-645v-180q0 -100 67.5 -151.5t165.5 -51.5q137 0 326 104l55 -100q-86 -49 -181 -81t-185 -34h-19q-106 0 -185 36t-120 114 q-47 -66 -124 -105.5t-189 -39.5q-102 0 -177 33.5t-123 91t-72 131t-24 151.5zM217 387q0 -57 16.5 -110.5t50 -93.5t87 -64.5t127.5 -24.5q72 0 124 23.5t85.5 63.5t50 90.5t16.5 103.5v262q0 139 -71.5 218t-204.5 79q-137 0 -209 -76t-72 -221v-250zM887 582h534v106 q0 70 -24.5 117t-62.5 74.5t-84 39t-91 11.5q-49 0 -97 -12.5t-87 -41t-63.5 -75.5t-24.5 -117v-102z" />
<glyph unicode="&#x178;" horiz-adv-x="1267" d="M102 1434h138l393 -584l391 584h141l-475 -707v-727h-112v723zM414 1604q0 29 20.5 49t46.5 20q27 0 48.5 -20.5t21.5 -48.5q0 -25 -21.5 -46.5t-48.5 -21.5t-47 21.5t-20 46.5zM721 1604q0 29 20.5 49t49.5 20q25 0 46 -20.5t21 -48.5q0 -25 -21.5 -46.5t-45.5 -21.5 q-29 0 -49.5 21.5t-20.5 46.5z" />
<glyph unicode="&#x2c6;" horiz-adv-x="862" d="M102 1194l334 319l324 -319l-88 -86l-238 242l-248 -242z" />
<glyph unicode="&#x2dc;" horiz-adv-x="909" d="M102 1372q68 72 123.5 98.5t102.5 26.5q43 0 84 -14.5t80 -32.5l12 -6q27 -12 53.5 -21.5t54.5 -9.5q23 0 54.5 20.5t78.5 69.5l62 -106q-59 -55 -108.5 -74.5t-90.5 -19.5q-43 0 -86 13t-78 32l-12 6q-27 8 -53.5 17t-54.5 9q-29 0 -67 -22.5t-91 -87.5z" />
<glyph unicode="&#x2000;" horiz-adv-x="1013" />
<glyph unicode="&#x2001;" horiz-adv-x="2027" />
<glyph unicode="&#x2002;" horiz-adv-x="1013" />
<glyph unicode="&#x2003;" horiz-adv-x="2027" />
<glyph unicode="&#x2004;" horiz-adv-x="675" />
<glyph unicode="&#x2005;" horiz-adv-x="505" />
<glyph unicode="&#x2006;" horiz-adv-x="337" />
<glyph unicode="&#x2007;" horiz-adv-x="337" />
<glyph unicode="&#x2008;" horiz-adv-x="251" />
<glyph unicode="&#x2009;" horiz-adv-x="405" />
<glyph unicode="&#x200a;" horiz-adv-x="112" />
<glyph unicode="&#x2010;" horiz-adv-x="886" d="M102 584v112h682v-112h-682z" />
<glyph unicode="&#x2011;" horiz-adv-x="886" d="M102 584v112h682v-112h-682z" />
<glyph unicode="&#x2012;" horiz-adv-x="886" d="M102 584v112h682v-112h-682z" />
<glyph unicode="&#x2013;" horiz-adv-x="987" d="M102 496v112h783v-112h-783z" />
<glyph unicode="&#x2014;" horiz-adv-x="1302" d="M102 496v112h1098v-112h-1098z" />
<glyph unicode="&#x2018;" horiz-adv-x="370" d="M102 1311q0 25 17 45l82 78l67 -25l-32 -82q2 -4 2 -16q0 -27 -20.5 -47.5t-49.5 -20.5q-25 0 -45.5 20.5t-20.5 47.5z" />
<glyph unicode="&#x2019;" horiz-adv-x="370" d="M102 1268l33 82q-2 4 -2 16q0 27 20.5 47.5t49.5 20.5q25 0 45 -20.5t20 -47.5q0 -25 -16 -45l-82 -78z" />
<glyph unicode="&#x201a;" horiz-adv-x="370" d="M102 -27l33 76q-2 8 -2 19q0 27 21.5 46t46.5 19q27 0 47 -19.5t20 -45.5q0 -31 -16 -43l-82 -84z" />
<glyph unicode="&#x201c;" horiz-adv-x="565" d="M102 1311q0 25 17 45l82 78l67 -25l-32 -82q2 -4 2 -16q0 -27 -20.5 -47.5t-49.5 -20.5q-25 0 -45.5 20.5t-20.5 47.5zM297 1311q0 25 16 45l82 78l68 -25l-33 -82q2 -4 2 -16q0 -27 -20.5 -47.5t-49.5 -20.5q-25 0 -45 20.5t-20 47.5z" />
<glyph unicode="&#x201d;" horiz-adv-x="565" d="M102 1268l33 82q-2 4 -2 16q0 27 20.5 47.5t49.5 20.5q25 0 45 -20.5t20 -47.5q0 -25 -16 -45l-82 -78zM297 1268l33 82q-2 4 -2 16q0 27 20.5 47.5t48.5 20.5q25 0 45.5 -20.5t20.5 -47.5q0 -25 -17 -45l-81 -78z" />
<glyph unicode="&#x201e;" horiz-adv-x="565" d="M102 -33l33 82q-2 4 -2 17q0 27 20.5 47t49.5 20q25 0 45 -20.5t20 -46.5q0 -25 -16 -46l-82 -77zM297 -33l33 82q-2 4 -2 17q0 27 20.5 47t48.5 20q25 0 45.5 -20.5t20.5 -46.5q0 -25 -17 -46l-81 -77z" />
<glyph unicode="&#x2022;" horiz-adv-x="624" d="M102 635q0 41 16.5 79t44 67.5t66.5 47t82 17.5t81 -17.5t67.5 -47t46 -67.5t16.5 -79q0 -45 -16.5 -83t-46 -66.5t-67.5 -45t-81 -16.5q-88 0 -148.5 60.5t-60.5 150.5z" />
<glyph unicode="&#x2026;" horiz-adv-x="968" d="M102 68q0 27 19.5 46t48.5 19q25 0 45.5 -19.5t20.5 -45.5q0 -27 -20.5 -47.5t-45.5 -20.5q-29 0 -48.5 20.5t-19.5 47.5zM418 68q0 27 19.5 46t47.5 19q25 0 45.5 -19.5t20.5 -45.5q0 -27 -20.5 -47.5t-45.5 -20.5q-29 0 -48 20.5t-19 47.5zM733 68q0 27 20.5 46 t45.5 19q29 0 48 -19.5t19 -45.5q0 -27 -19.5 -47.5t-47.5 -20.5q-25 0 -45.5 20.5t-20.5 47.5z" />
<glyph unicode="&#x202f;" horiz-adv-x="405" />
<glyph unicode="&#x2039;" horiz-adv-x="694" d="M102 545l410 409l80 -80l-328 -329l324 -320l-72 -94z" />
<glyph unicode="&#x203a;" horiz-adv-x="694" d="M102 874l80 80l410 -409l-414 -414l-72 94l324 320z" />
<glyph unicode="&#x205f;" horiz-adv-x="505" />
<glyph unicode="&#x20ac;" horiz-adv-x="1146" d="M102 547v112h95v86h-95v113h95v166q0 115 38.5 192.5t101 126t140.5 70t156 21.5q57 0 115.5 -13.5t114 -43t102.5 -77t79 -114.5l-102 -49q-49 100 -135 141t-174 41q-55 0 -113.5 -15.5t-104.5 -49t-76 -91t-30 -139.5v-166h475v-113h-475v-86h475v-112h-475v-158 q0 -84 30 -140t76 -91t104.5 -50.5t113.5 -15.5q43 0 88 10.5t86 32t76 56t59 85.5l102 -49q-33 -68 -79.5 -116t-102 -77.5t-114 -43t-115.5 -13.5q-78 0 -156 20.5t-140.5 69t-101 127t-38.5 195.5v158h-95z" />
<glyph unicode="&#x2122;" horiz-adv-x="1492" d="M102 1325v109h541v-109h-217v-725h-115v725h-209zM727 600v834h98l238 -631q59 160 117.5 315.5t117.5 315.5h93v-834h-109v481l-180 -481h-82l-180 481v-481h-113z" />
<glyph unicode="&#xe000;" horiz-adv-x="1025" d="M0 1025h1025v-1025h-1025v1025z" />
<glyph unicode="&#xfb01;" horiz-adv-x="866" d="M102 0v1087q0 94 27 160t72 106t100 58.5t115 18.5q23 0 47 -2.5t59 -8.5v-114q-37 6 -66.5 9t-39.5 3q-37 0 -73 -11.5t-63.5 -38t-45 -70.5t-17.5 -110v-53h287v-114h-287v-920h-115zM635 1360q0 61 65 61q63 0 64 -61q0 -66 -64 -66q-65 0 -65 66zM641 0v1026h115 v-1026h-115z" />
<glyph unicode="&#xfb02;" horiz-adv-x="849" d="M102 0v1096q0 94 27 159.5t72 105.5t100 58.5t115 18.5q23 0 47 -2t59 -9v-114q-37 6 -66.5 9t-39.5 3q-37 0 -73 -11t-63.5 -38t-45 -71t-17.5 -109v-54h287v-114h-287v-928h-115zM635 0v1432h113v-1432h-113z" />
<glyph unicode="&#xfb03;" horiz-adv-x="1576" d="M1347 1360q0 61 66 61q61 0 61 -61q0 -66 -61 -66q-66 0 -66 66zM1356 0v1026h112v-1026h-112zM725 0v1092q0 94 27 159.5t72 105.5t100 58.5t115 18.5q23 0 46 -2t58 -9v-114q-35 6 -64.5 9t-39.5 3q-37 0 -73 -11.5t-63.5 -38t-45 -70.5t-17.5 -109v-54h285v-114h-285 v-924h-115zM102 0v1092q0 94 27 159.5t72 105.5t100 58.5t115 18.5q23 0 46 -2t58 -9v-114q-35 6 -64.5 9t-39.5 3q-37 0 -73 -11.5t-63.5 -38t-45 -70.5t-17.5 -109v-54h285v-114h-285v-924h-115z" />
<glyph unicode="&#xfb04;" horiz-adv-x="1562" d="M1347 0v1434h113v-1434h-113zM725 0v1092q0 94 27 159.5t72 105.5t100 58.5t115 18.5q23 0 46 -2t58 -9v-114q-35 6 -64.5 9t-39.5 3q-37 0 -73 -11.5t-63.5 -38t-45 -70.5t-17.5 -109v-54h285v-114h-285v-924h-115zM102 0v1092q0 94 27 159.5t72 105.5t100 58.5 t115 18.5q23 0 46 -2t58 -9v-114q-35 6 -64.5 9t-39.5 3q-37 0 -73 -11.5t-63.5 -38t-45 -70.5t-17.5 -109v-54h285v-114h-285v-924h-115z" />
</font>
</defs>
</svg>
